<svg xmlns="http://www.w3.org/2000/svg" xmlns:xlink="http://www.w3.org/1999/xlink" width="1280" zoomAndPan="magnify" viewBox="0 0 960 593.999999" height="792" preserveAspectRatio="xMidYMid meet" version="1.0"><path fill="#c4c6e3" d="M 337.058594 505.261719 C 337.058594 505.261719 443.105469 524.945312 432.390625 539.554688 C 421.675781 554.160156 354.777344 566.828125 309.363281 557.085938 C 263.933594 547.347656 304.929688 540.832031 273.234375 532.882812 C 241.535156 524.945312 264.125 498.242188 337.058594 505.261719 " fill-opacity="1" fill-rule="nonzero"/><path fill="#c4c6e3" d="M 840.714844 499 C 840.714844 499 946.753906 518.671875 936.050781 533.28125 C 925.335938 547.898438 858.4375 560.550781 813.011719 550.824219 C 767.59375 541.070312 808.589844 534.566406 776.886719 526.617188 C 745.195312 518.671875 767.785156 491.976562 840.714844 499 " fill-opacity="1" fill-rule="nonzero"/><path fill="#c4c6e3" d="M 537.332031 496.898438 C 537.332031 496.898438 643.367188 516.574219 632.652344 531.191406 C 621.949219 545.800781 555.050781 558.460938 509.625 548.722656 C 464.207031 538.980469 505.203125 532.472656 473.507812 524.523438 C 441.808594 516.574219 464.398438 489.882812 537.332031 496.898438 " fill-opacity="1" fill-rule="nonzero"/><path fill="#15141d" d="M 335.0625 512.546875 C 335.0625 512.546875 342.042969 527.859375 338.722656 529.253906 C 335.414062 530.640625 298.8125 542.554688 288.277344 531.164062 C 283.808594 524.175781 308.753906 523.226562 313.324219 518.003906 C 317.894531 512.777344 320.503906 507.628906 320.503906 507.628906 L 335.0625 512.546875 " fill-opacity="1" fill-rule="nonzero"/><path fill="#1b1c28" d="M 380.015625 512.476562 C 380.015625 512.476562 388.050781 530.097656 384.230469 531.695312 C 380.40625 533.296875 338.261719 547.03125 326.132812 533.902344 C 320.976562 525.855469 349.710938 524.769531 354.972656 518.75 C 360.230469 512.734375 363.238281 506.796875 363.238281 506.796875 L 380.015625 512.476562 " fill-opacity="1" fill-rule="nonzero"/><path fill="#f03930" d="M 368.910156 151.351562 C 367.855469 151.542969 366.773438 151.644531 365.664062 151.644531 C 363.734375 151.644531 361.859375 151.339844 360.101562 150.789062 C 356.832031 150.09375 353.765625 148.546875 351.273438 146.285156 C 331.667969 144.902344 308.792969 152.59375 308.792969 152.59375 L 306.464844 269.375 C 342.183594 281.609375 377.941406 266.589844 377.941406 266.589844 C 393.136719 235.175781 369.011719 151.414062 369.011719 151.414062 L 368.910156 151.351562 " fill-opacity="1" fill-rule="nonzero"/><path fill="#262c34" d="M 310.835938 280.378906 C 310.835938 280.378906 303.558594 372.039062 311.707031 393.144531 L 345.058594 397.011719 L 354.546875 281.101562 L 310.835938 280.378906 " fill-opacity="1" fill-rule="nonzero"/><path fill="#262c34" d="M 311.707031 393.144531 L 317.152344 512.453125 L 337.09375 514.773438 C 337.09375 514.773438 356.878906 427.507812 345.445312 393.703125 L 311.707031 393.144531 " fill-opacity="1" fill-rule="nonzero"/><path fill="#323b45" d="M 326.648438 282.871094 C 326.648438 282.871094 330.007812 374.753906 340.542969 394.773438 L 374.117188 394.773438 L 370.164062 278.535156 L 326.648438 282.871094 " fill-opacity="1" fill-rule="nonzero"/><path fill="#323b45" d="M 340.542969 394.773438 L 359.71875 512.65625 L 379.800781 512.65625 C 379.800781 512.65625 389.378906 423.6875 374.117188 391.429688 L 340.542969 394.773438 " fill-opacity="1" fill-rule="nonzero"/><path fill="#cf677a" d="M 300.003906 159.417969 C 300.003906 159.417969 272.375 216.089844 279.925781 234.175781 C 287.476562 252.269531 295.042969 235.265625 295.042969 235.265625 L 318.371094 180.988281 C 318.371094 180.988281 315.929688 156.789062 300.003906 159.417969 " fill-opacity="1" fill-rule="nonzero"/><path fill="#181b29" d="M 316.625 174.078125 C 316.625 174.078125 313.25 203.136719 306.875 215.207031 L 273.636719 204.371094 C 273.875 204.457031 281.542969 183.925781 282.308594 182.082031 C 285.554688 174.304688 289.390625 166.71875 294.898438 160.292969 C 295.589844 159.492188 304.265625 149.964844 304.128906 149.816406 C 304.128906 149.816406 313.363281 159.609375 316.625 174.078125 " fill-opacity="1" fill-rule="nonzero"/><path fill="#3c4d67" d="M 337.132812 129.871094 L 342.082031 133.882812 L 350.320312 146.605469 L 330.625 147.6875 L 337.132812 129.871094 " fill-opacity="1" fill-rule="nonzero"/><path fill="#1d2132" d="M 346.769531 144.078125 C 325.566406 138.652344 293.1875 150.605469 294.152344 176.011719 C 294.84375 194.402344 310.519531 282.945312 310.519531 282.945312 L 370.527344 282.660156 C 367.433594 256.574219 374.101562 163.023438 374.105469 162.941406 C 374.605469 155.664062 355.992188 147.378906 350.566406 145.289062 C 349.351562 144.820312 348.082031 144.414062 346.769531 144.078125 " fill-opacity="1" fill-rule="nonzero"/><path fill="#f25c2e" d="M 312.929688 278.535156 L 308.792969 284.9375 C 308.792969 284.9375 303.097656 283.957031 302.183594 280.378906 C 302.183594 280.378906 300.992188 273.664062 299.503906 263.296875 C 299.167969 260.925781 298.796875 258.359375 298.429688 255.625 C 297.773438 250.757812 297.105469 245.386719 296.476562 239.738281 C 296.117188 236.585938 295.769531 233.34375 295.460938 230.054688 L 295.460938 230.035156 C 292.949219 203.808594 291.898438 174.304688 297.609375 160.125 C 298.605469 157.632812 299.816406 155.609375 301.261719 154.164062 L 303.558594 153.164062 L 311.210938 149.824219 C 311.007812 150.199219 304.589844 162.359375 301.273438 174.320312 C 299.488281 180.785156 298.605469 187.199219 300.109375 191.660156 C 301.203125 194.953125 303.597656 197.199219 307.84375 197.648438 L 311.53125 256.402344 L 311.53125 256.414062 L 312.019531 263.992188 L 312.929688 278.535156 " fill-opacity="1" fill-rule="nonzero"/><path fill="#f25c2e" d="M 357.472656 268.535156 C 358.304688 281.609375 323.285156 286.613281 323.285156 286.613281 L 313.929688 278.535156 L 313.445312 264.019531 L 313.445312 264.015625 L 313.195312 256.433594 L 311.21875 197.648438 C 323.257812 194.980469 349.320312 145.058594 349.320312 145.058594 L 351.324219 145.710938 L 362.515625 149.328125 L 369.011719 151.414062 C 354.441406 171.164062 354.929688 221.699219 356.332031 250.140625 C 356.472656 252.976562 356.621094 255.59375 356.765625 257.941406 C 357.058594 262.789062 357.339844 266.480469 357.472656 268.535156 " fill-opacity="1" fill-rule="nonzero"/><path fill="#fff224" d="M 305.808594 260.308594 L 301.019531 261.75 C 300.425781 259.792969 299.878906 257.773438 299.386719 255.71875 C 298.144531 250.628906 297.195312 245.257812 296.476562 239.738281 C 296.054688 236.558594 295.722656 233.316406 295.460938 230.054688 L 295.460938 230.035156 C 293.433594 205.253906 295.4375 178.722656 297.609375 160.125 C 298.605469 157.632812 299.816406 155.609375 301.261719 154.164062 L 303.558594 153.164062 C 302.789062 159.085938 301.957031 166.316406 301.273438 174.320312 C 300.800781 179.792969 300.394531 185.628906 300.109375 191.660156 C 299.109375 213.042969 299.695312 236.953125 304.640625 256.125 C 305.011719 257.550781 305.398438 258.9375 305.808594 260.308594 " fill-opacity="1" fill-rule="nonzero"/><path fill="#fff224" d="M 333.804688 255.3125 C 333.792969 256.433594 333.804688 257.550781 333.84375 258.640625 L 322.171875 258.972656 C 322.152344 258.082031 322.144531 257.191406 322.132812 256.285156 C 322 217.398438 342.109375 166.804688 351.324219 145.710938 L 362.515625 149.328125 C 353.992188 168.847656 334.015625 218.472656 333.804688 255.3125 " fill-opacity="1" fill-rule="nonzero"/><path fill="#fff224" d="M 356.332031 250.140625 C 348.914062 252.78125 341.175781 254.382812 333.804688 255.3125 C 329.777344 255.824219 325.851562 256.125 322.132812 256.285156 C 318.976562 256.433594 315.972656 256.484375 313.195312 256.433594 C 312.628906 256.433594 312.078125 256.425781 311.53125 256.414062 L 311.53125 256.402344 C 309.023438 256.359375 306.703125 256.257812 304.640625 256.125 C 302.636719 256.011719 300.863281 255.851562 299.386719 255.71875 C 299.054688 255.679688 298.722656 255.644531 298.429688 255.625 C 298.796875 258.359375 299.167969 260.925781 299.503906 263.296875 C 302.730469 263.609375 307.015625 263.902344 312.019531 263.992188 C 312.488281 264.015625 312.957031 264.015625 313.445312 264.015625 L 313.445312 264.019531 C 314.003906 264.03125 314.585938 264.03125 315.171875 264.03125 C 327.054688 264.03125 342.214844 262.761719 356.765625 257.941406 C 356.621094 255.59375 356.472656 252.976562 356.332031 250.140625 " fill-opacity="1" fill-rule="nonzero"/><path fill="#e0788a" d="M 301.496094 219.492188 C 301.496094 219.492188 360.242188 239.792969 371.191406 237.46875 C 382.148438 235.136719 376.46875 249.347656 376.46875 249.347656 C 376.46875 249.347656 359.9375 261.78125 347.921875 256.453125 C 335.898438 251.117188 288.773438 225.148438 288.773438 225.148438 C 288.773438 225.148438 295.128906 221.671875 301.496094 219.492188 " fill-opacity="1" fill-rule="nonzero"/><path fill="#e0788a" d="M 295.792969 220.644531 C 294.566406 212.960938 294.140625 205.484375 294.832031 197.957031 C 287.863281 199.09375 273.96875 204.160156 291.726562 226.980469 C 291.726562 226.980469 294.464844 227.660156 297.644531 227.789062 C 296.808594 225.4375 296.171875 223.027344 295.792969 220.644531 " fill-opacity="1" fill-rule="nonzero"/><path fill="#cf677a" d="M 350.617188 228.570312 C 350.617188 228.570312 346.855469 218.324219 352.160156 215.039062 C 357.472656 211.746094 370.597656 204.1875 371.695312 206.539062 C 372.792969 208.898438 359.792969 215.902344 361.523438 217.933594 C 363.238281 219.953125 368.675781 217.851562 379.367188 220.847656 C 379.367188 220.847656 381.75 248.035156 350.617188 228.570312 " fill-opacity="1" fill-rule="nonzero"/><path fill="#cf677a" d="M 286.75 242.519531 C 286.75 242.519531 331.207031 238.433594 359.421875 226.777344 C 359.421875 226.777344 361.871094 219.421875 352.671875 217.578125 C 343.480469 215.742188 304.367188 215.683594 291.265625 221.542969 C 278.160156 227.386719 286.75 242.519531 286.75 242.519531 " fill-opacity="1" fill-rule="nonzero"/><path fill="#e0788a" d="M 373.742188 170.191406 C 373.742188 170.191406 386.664062 232.507812 374.769531 248.332031 C 362.878906 264.144531 359.695312 245.625 359.695312 245.625 L 350.402344 186.71875 C 350.402344 186.71875 358.816406 163.648438 373.742188 170.191406 " fill-opacity="1" fill-rule="nonzero"/><path fill="#252b41" d="M 349.980469 175.09375 C 349.980469 175.09375 348.847656 204.609375 353.335938 217.632812 L 388.167969 211.976562 L 373.988281 159.058594 C 373.988281 159.058594 355.484375 161.164062 349.980469 175.09375 " fill-opacity="1" fill-rule="nonzero"/><path fill="#1d2132" d="M 331.339844 143.347656 L 326.835938 131.554688 L 301.554688 149.226562 L 300.625 164.765625 L 331.339844 143.347656 " fill-opacity="1" fill-rule="nonzero"/><path fill="#1d2132" d="M 335.691406 143.347656 L 327.453125 130.617188 L 302.171875 148.296875 L 304.96875 164.765625 L 335.691406 143.347656 " fill-opacity="1" fill-rule="nonzero"/><path fill="#c15872" d="M 334.324219 113.699219 L 340.378906 148.621094 C 340.378906 148.621094 327.351562 167.707031 312.917969 164.449219 L 312.917969 132.523438 L 334.324219 113.699219 " fill-opacity="1" fill-rule="nonzero"/><path fill="#e0788a" d="M 315.441406 138.742188 L 301.792969 136.035156 C 301.792969 136.035156 292.550781 100.988281 299.796875 85.332031 C 307.046875 69.6875 337.234375 68.070312 340.929688 89.207031 C 344.625 110.351562 339.054688 119.691406 339.054688 119.691406 L 315.441406 138.742188 " fill-opacity="1" fill-rule="nonzero"/><path fill="#1d2132" d="M 345.976562 146.605469 L 341.464844 134.8125 L 316.191406 152.480469 L 315.265625 168.015625 L 345.976562 146.605469 " fill-opacity="1" fill-rule="nonzero"/><path fill="#1d2132" d="M 350.320312 146.605469 L 342.082031 133.882812 L 316.8125 151.554688 L 319.597656 168.015625 L 350.320312 146.605469 " fill-opacity="1" fill-rule="nonzero"/><path fill="#211921" d="M 328.265625 102.71875 C 328.265625 102.71875 327.066406 102.839844 325.566406 102.757812 C 324.800781 102.734375 323.976562 102.660156 323.128906 102.589844 C 322.707031 102.527344 322.261719 102.53125 321.84375 102.46875 C 321.414062 102.386719 320.996094 102.386719 320.578125 102.359375 C 320.167969 102.28125 319.769531 102.285156 319.367188 102.242188 C 318.976562 102.28125 318.585938 102.167969 318.214844 102.183594 C 317.867188 102.25 317.460938 102.140625 317.125 102.195312 C 316.792969 102.25 316.40625 102.195312 316.085938 102.257812 C 315.773438 102.324219 315.441406 102.339844 315.125 102.378906 C 314.832031 102.441406 314.5625 102.511719 314.34375 102.554688 C 313.886719 102.644531 313.566406 102.699219 313.566406 102.699219 L 313.378906 102.527344 C 313.378906 102.527344 313.566406 102.351562 313.886719 102.050781 C 314.1875 101.71875 314.703125 101.332031 315.367188 100.9375 C 315.683594 100.710938 316.085938 100.605469 316.492188 100.410156 C 316.882812 100.21875 317.355469 100.171875 317.808594 100.03125 C 318.746094 99.839844 319.78125 99.785156 320.804688 99.871094 C 322.835938 100.089844 324.773438 100.75 326.15625 101.359375 C 327.53125 101.976562 328.394531 102.511719 328.394531 102.511719 L 328.265625 102.71875 " fill-opacity="1" fill-rule="nonzero"/><path fill="#211921" d="M 317.40625 105.070312 C 317.40625 106.390625 318.191406 107.457031 319.15625 107.457031 C 320.117188 107.457031 320.90625 106.390625 320.90625 105.070312 C 320.90625 103.757812 320.117188 102.691406 319.15625 102.691406 C 318.191406 102.691406 317.40625 103.757812 317.40625 105.070312 " fill-opacity="1" fill-rule="nonzero"/><path fill="#211921" d="M 295.871094 102.609375 C 295.871094 102.609375 296.039062 101.644531 296.847656 100.785156 C 297.242188 100.347656 297.796875 99.921875 298.476562 99.644531 C 298.8125 99.515625 299.183594 99.363281 299.570312 99.308594 C 299.964844 99.28125 300.367188 99.207031 300.785156 99.234375 C 301.609375 99.3125 302.457031 99.515625 303.121094 99.960938 C 303.480469 100.121094 303.753906 100.421875 304 100.667969 C 304.277344 100.898438 304.460938 101.191406 304.609375 101.472656 C 305.253906 102.53125 305.074219 103.519531 305.101562 103.492188 L 304.921875 103.667969 C 304.898438 103.695312 304.519531 103.195312 303.753906 102.699219 C 303.382812 102.429688 302.90625 102.207031 302.371094 102.027344 C 301.851562 101.847656 301.25 101.746094 300.65625 101.722656 C 299.457031 101.605469 298.25 101.898438 297.386719 102.195312 C 296.527344 102.511719 296 102.820312 296 102.828125 L 295.871094 102.609375 " fill-opacity="1" fill-rule="nonzero"/><path fill="#211921" d="M 302.144531 104.320312 C 302.144531 105.285156 301.574219 106.066406 300.863281 106.066406 C 300.15625 106.066406 299.585938 105.285156 299.585938 104.320312 C 299.585938 103.363281 300.15625 102.582031 300.863281 102.582031 C 301.574219 102.582031 302.144531 103.363281 302.144531 104.320312 " fill-opacity="1" fill-rule="nonzero"/><path fill="#ffffff" d="M 319.535156 120.058594 C 319.535156 120.058594 310.851562 121.300781 304.03125 119.765625 L 304.640625 123.390625 C 304.640625 123.390625 315.019531 125.597656 319.535156 120.058594 " fill-opacity="1" fill-rule="nonzero"/><path fill="#df6886" d="M 308.792969 111.6875 C 308.792969 111.6875 308.734375 111.851562 308.5625 112.09375 L 308.171875 112.484375 C 308 112.609375 307.796875 112.773438 307.535156 112.855469 L 307.105469 112.992188 L 306.625 113.03125 L 306.113281 112.984375 L 305.730469 112.902344 L 305.558594 112.828125 L 305.355469 112.738281 L 305.058594 112.53125 C 304.828125 112.378906 304.726562 112.222656 304.578125 112.035156 C 304.351562 111.671875 304.175781 111.246094 304.136719 110.824219 C 304.113281 110.390625 304.164062 109.96875 304.304688 109.585938 C 304.441406 109.210938 304.667969 108.878906 304.910156 108.617188 C 305.140625 108.339844 305.433594 108.144531 305.703125 107.992188 C 305.96875 107.835938 306.238281 107.734375 306.496094 107.667969 C 306.730469 107.582031 306.972656 107.578125 307.175781 107.546875 L 307.695312 107.539062 C 307.992188 107.566406 308.144531 107.59375 308.144531 107.59375 L 308.167969 107.6875 C 308.167969 107.6875 308.015625 107.722656 307.765625 107.789062 L 307.304688 107.925781 L 306.742188 108.171875 L 306.125 108.546875 C 305.921875 108.71875 305.71875 108.890625 305.558594 109.121094 C 305.378906 109.335938 305.253906 109.597656 305.160156 109.875 C 305.070312 110.144531 305.039062 110.4375 305.070312 110.734375 C 305.085938 111.027344 305.199219 111.300781 305.332031 111.546875 C 305.507812 111.777344 305.675781 111.980469 305.949219 112.105469 C 306.191406 112.207031 306.457031 112.296875 306.703125 112.328125 L 307.078125 112.351562 L 307.421875 112.304688 C 307.640625 112.285156 307.824219 112.183594 308 112.121094 L 308.402344 111.878906 C 308.628906 111.734375 308.71875 111.621094 308.71875 111.621094 L 308.792969 111.6875 " fill-opacity="1" fill-rule="nonzero"/><path fill="#651d27" d="M 319.535156 69.746094 C 319.535156 69.746094 287.417969 76.6875 289.371094 90.175781 C 291.320312 103.65625 322.722656 98.375 324.398438 94.625 C 324.398438 94.625 318.558594 89.617188 318.28125 88.507812 C 317.996094 87.394531 333.011719 92.820312 331.339844 98.242188 C 331.339844 98.242188 336.066406 99.488281 337.730469 95.601562 C 339.402344 91.707031 342.140625 103.25 341.8125 109.507812 C 341.8125 109.507812 356.214844 61.8125 319.535156 69.746094 " fill-opacity="1" fill-rule="nonzero"/><path fill="#e0788a" d="M 334.125 102.515625 C 334.125 102.515625 334.402344 92.125 338.429688 92.960938 C 342.457031 93.785156 344.820312 107.96875 337.730469 108.945312 C 333.84375 109.222656 334.125 102.515625 334.125 102.515625 " fill-opacity="1" fill-rule="nonzero"/><path fill="#fbc120" d="M 287.804688 84.148438 C 292.746094 97.753906 349.167969 87.027344 349.167969 87.027344 L 348.460938 81.726562 C 347.117188 81.679688 346.324219 80.355469 345.886719 79.160156 C 345.527344 78.148438 345.398438 77.222656 345.398438 77.222656 C 345.398438 77.222656 345.445312 76.375 345.335938 75.003906 C 344.878906 69.125 341.601562 53.574219 319.972656 52.972656 C 293.296875 52.230469 292.101562 74.929688 292.101562 74.929688 L 289.046875 77.496094 L 288.789062 77.710938 L 287.804688 84.148438 " fill-opacity="1" fill-rule="nonzero"/><path fill="#fdd82d" d="M 310.351562 83.457031 C 310.351562 83.457031 295.863281 84 293.628906 80.800781 C 293.628906 80.800781 293.785156 58.132812 307.144531 52.953125 C 320.503906 47.777344 327.632812 53.9375 327.632812 53.9375 C 327.632812 53.9375 307.359375 62.492188 310.351562 83.457031 " fill-opacity="1" fill-rule="nonzero"/><path fill="#f89e23" d="M 310.351562 83.457031 L 313.855469 83.457031 C 313.855469 83.457031 311.449219 63.691406 327.632812 53.9375 C 327.632812 53.9375 308.542969 56.304688 310.351562 83.457031 " fill-opacity="1" fill-rule="nonzero"/><path fill="#f89e23" d="M 316.800781 84.332031 C 325.058594 86.832031 348.460938 81.726562 348.460938 81.726562 C 347.117188 81.679688 346.324219 80.355469 345.886719 79.160156 C 334.886719 81.949219 316.800781 84.332031 316.800781 84.332031 " fill-opacity="1" fill-rule="nonzero"/><path fill="#f89e23" d="M 289.046875 77.496094 C 291.035156 80.125 294.371094 81.480469 294.371094 81.480469 C 291.789062 78.535156 292.101562 74.929688 292.101562 74.929688 L 289.046875 77.496094 " fill-opacity="1" fill-rule="nonzero"/><path fill="#f4ed75" d="M 314.226562 53.230469 C 314.226562 53.230469 297.902344 60 297.710938 79.160156 C 297.710938 79.160156 293.636719 55.824219 314.226562 53.230469 " fill-opacity="1" fill-rule="nonzero"/><path fill="#f4977f" d="M 462.578125 248.636719 C 462.578125 248.636719 458.773438 237.777344 452.253906 238.664062 C 445.734375 239.550781 429.992188 242.203125 430.671875 244.855469 C 431.363281 247.5 446.625 244.496094 446.582031 247.292969 C 446.535156 250.085938 440.710938 252.027344 434.03125 261.632812 C 434.03125 261.632812 450.320312 285.328125 462.578125 248.636719 " fill-opacity="1" fill-rule="nonzero"/><path fill="#15141d" d="M 451.675781 237.816406 L 463.085938 250.875 L 530.296875 217.679688 L 535.289062 120.621094 L 525.433594 118.742188 C 525.433594 118.742188 507.015625 136.386719 501.304688 204.058594 L 451.675781 237.816406 " fill-opacity="1" fill-rule="nonzero"/><path fill="#222434" d="M 531.730469 491.691406 C 531.730469 491.691406 539.089844 509.605469 535.21875 511.058594 C 531.335938 512.507812 488.753906 524.609375 477.128906 511.058594 C 472.289062 502.824219 501.019531 502.824219 506.5 497.011719 C 511.980469 491.207031 515.207031 485.394531 515.207031 485.394531 L 531.730469 491.691406 " fill-opacity="1" fill-rule="nonzero"/><path fill="#161620" d="M 521.628906 250.417969 L 510.175781 491.613281 L 533.199219 494.730469 C 533.199219 494.730469 551.28125 323.070312 569.382812 286.152344 L 521.628906 250.417969 " fill-opacity="1" fill-rule="nonzero"/><path fill="#3a2838" d="M 520.550781 46.96875 C 520.550781 46.96875 512.972656 75.894531 531.796875 90.207031 L 558.667969 71.902344 L 547.867188 39.058594 L 520.550781 46.96875 " fill-opacity="1" fill-rule="nonzero"/><path fill="#222434" d="M 592.128906 511.582031 C 592.128906 511.582031 600.121094 531.035156 595.914062 532.617188 C 591.710938 534.203125 545.410156 547.351562 532.78125 532.617188 C 527.519531 523.667969 558.75 523.667969 564.699219 517.355469 C 570.667969 511.035156 574.171875 504.730469 574.171875 504.730469 L 592.128906 511.582031 " fill-opacity="1" fill-rule="nonzero"/><path fill="#d5dfe4" d="M 560.976562 92.765625 L 566.199219 96.988281 L 574.867188 110.390625 L 554.113281 111.542969 L 560.976562 92.765625 " fill-opacity="1" fill-rule="nonzero"/><path fill="#d5dfe4" d="M 571.128906 107.734375 C 548.777344 102.011719 514.679688 114.613281 515.6875 141.371094 C 516.421875 160.753906 527.113281 257.078125 527.113281 257.078125 L 588.265625 255.492188 C 584.992188 228.007812 599.925781 127.691406 599.9375 127.601562 C 600.457031 119.945312 580.847656 111.210938 575.136719 109.003906 C 573.859375 108.503906 572.515625 108.082031 571.128906 107.734375 " fill-opacity="1" fill-rule="nonzero"/><path fill="#c11f3a" d="M 532.421875 142.207031 L 523.273438 215.628906 L 532.347656 226.246094 L 546.46875 204.058594 L 540.917969 142.207031 L 532.421875 142.207031 " fill-opacity="1" fill-rule="nonzero"/><path fill="#191924" d="M 532.644531 256.574219 L 533.230469 207.574219 L 527.113281 118.742188 C 527.113281 118.742188 516.535156 124.085938 510.878906 135.398438 C 512.960938 155.25 515.140625 175.09375 517.285156 194.941406 C 519.511719 215.453125 516.625 235.773438 514.730469 256.195312 C 514.707031 256.453125 514.296875 262.054688 514.199219 262.054688 C 514.199219 262.054688 531.476562 261.925781 532.644531 256.574219 " fill-opacity="1" fill-rule="nonzero"/><path fill="#27283b" d="M 527.847656 169.488281 C 527.847656 169.488281 520.671875 150.15625 519.042969 140.195312 L 522.519531 136.53125 L 515.667969 135.65625 C 515.667969 135.65625 515.585938 122.917969 530.296875 114.933594 L 527.847656 169.488281 " fill-opacity="1" fill-rule="nonzero"/><path fill="#d16155" d="M 589.59375 120.621094 C 589.59375 120.621094 641.953125 162.488281 642.933594 183.3125 C 643.917969 204.152344 628.902344 191.261719 628.902344 191.261719 L 581.765625 149.734375 C 581.765625 149.734375 573.09375 125.347656 589.59375 120.621094 " fill-opacity="1" fill-rule="nonzero"/><path fill="#f4977f" d="M 652.957031 238.78125 C 652.957031 238.78125 643.8125 239.953125 638.285156 243.628906 C 632.753906 247.320312 619.640625 256.683594 621.4375 258.792969 C 623.230469 260.898438 635.753906 251.410156 636.949219 253.972656 C 638.144531 256.527344 633.714844 260.871094 631.882812 272.542969 C 631.882812 272.542969 659.882812 286.226562 652.957031 238.78125 " fill-opacity="1" fill-rule="nonzero"/><path fill="#d5dfe4" d="M 554.875 106.957031 L 550.125 94.535156 L 524.148438 112.175781 L 522.519531 129.523438 L 554.875 106.957031 " fill-opacity="1" fill-rule="nonzero"/><path fill="#f38575" d="M 558.023438 75.722656 L 564.40625 112.515625 C 564.40625 112.515625 550.675781 132.625 535.464844 129.191406 L 530.296875 74.363281 L 558.023438 75.722656 " fill-opacity="1" fill-rule="nonzero"/><path fill="#d5dfe4" d="M 570.296875 110.390625 L 565.546875 97.964844 L 539.570312 115.605469 L 537.929688 132.953125 L 570.296875 110.390625 " fill-opacity="1" fill-rule="nonzero"/><path fill="#d5dfe4" d="M 574.867188 110.390625 L 566.199219 96.988281 L 539.570312 115.605469 L 542.511719 132.953125 L 574.867188 110.390625 " fill-opacity="1" fill-rule="nonzero"/><path fill="#f4977f" d="M 546.015625 97.964844 L 569.125 94.535156 C 569.125 94.535156 577.75 62.332031 570.105469 45.84375 C 562.476562 29.351562 530.667969 27.648438 526.765625 49.925781 C 522.878906 72.199219 528.753906 82.03125 528.753906 82.03125 L 546.015625 97.964844 " fill-opacity="1" fill-rule="nonzero"/><path fill="#211921" d="M 539.371094 63.78125 C 539.371094 63.78125 543.453125 61.710938 547.941406 61.640625 C 549.058594 61.609375 550.160156 61.742188 551.164062 62 C 551.660156 62.183594 552.148438 62.261719 552.5625 62.503906 C 552.984375 62.722656 553.398438 62.871094 553.726562 63.128906 C 554.398438 63.589844 554.90625 64.019531 555.195312 64.390625 C 555.523438 64.730469 555.695312 64.925781 555.695312 64.925781 C 555.695312 64.925781 555.496094 64.757812 555.125 64.46875 C 554.785156 64.160156 554.226562 63.820312 553.523438 63.488281 C 553.191406 63.296875 552.765625 63.222656 552.355469 63.070312 C 551.953125 62.921875 551.46875 62.921875 551.011719 62.820312 C 550.070312 62.722656 549.058594 62.769531 548.066406 62.941406 C 546.066406 63.300781 544.183594 64.082031 542.84375 64.785156 C 541.476562 65.503906 540.707031 66.054688 540.707031 66.054688 L 539.371094 63.78125 " fill-opacity="1" fill-rule="nonzero"/><path fill="#211921" d="M 573.480469 65.273438 C 573.480469 65.273438 573.109375 64.929688 572.3125 64.480469 C 571.539062 64.066406 570.421875 63.589844 569.226562 63.503906 C 568.636719 63.453125 568.015625 63.488281 567.46875 63.617188 C 566.90625 63.746094 566.371094 63.929688 565.957031 64.167969 C 565.101562 64.597656 564.625 65.089844 564.609375 65.058594 C 564.636719 65.089844 564.96875 64.5 565.726562 63.828125 C 566.085938 63.476562 566.589844 63.128906 567.179688 62.835938 C 567.757812 62.519531 568.449219 62.308594 569.15625 62.191406 C 570.582031 61.925781 572.042969 62.144531 573.105469 62.410156 C 573.628906 62.550781 574.070312 62.695312 574.375 62.820312 C 574.683594 62.9375 574.894531 63.042969 574.867188 63.027344 L 573.480469 65.273438 " fill-opacity="1" fill-rule="nonzero"/><path fill="#211921" d="M 546.015625 65.539062 C 546.015625 65.539062 548.503906 64.066406 549.597656 64.140625 L 549.710938 64.132812 C 550.734375 64.132812 551.546875 65.25 551.546875 66.644531 C 551.546875 68.019531 550.734375 69.15625 549.710938 69.15625 C 548.699219 69.15625 547.867188 68.019531 547.867188 66.644531 C 547.867188 66.136719 547.980469 65.667969 548.171875 65.273438 C 547.359375 65.230469 546.464844 65.25 546.015625 65.539062 " fill-opacity="1" fill-rule="nonzero"/><path fill="#211921" d="M 571.761719 65.632812 C 571.761719 65.632812 569.484375 64.289062 568.488281 64.363281 L 568.386719 64.339844 C 567.457031 64.339844 566.703125 65.375 566.703125 66.644531 C 566.703125 67.902344 567.457031 68.929688 568.386719 68.929688 C 569.316406 68.929688 570.0625 67.902344 570.0625 66.644531 C 570.0625 66.183594 569.960938 65.75 569.792969 65.390625 C 570.527344 65.347656 571.347656 65.375 571.761719 65.632812 " fill-opacity="1" fill-rule="nonzero"/><path fill="#ac4f44" d="M 563.34375 76.773438 L 565.113281 74.0625 L 558.667969 75.417969 Z M 563.34375 76.773438 " fill-opacity="1" fill-rule="nonzero"/><path fill="#1b1c28" d="M 574.175781 147.8125 L 621.269531 190.4375 L 636.914062 241.640625 L 655.929688 241.640625 C 655.929688 241.640625 650.550781 197.839844 643.191406 175.054688 C 637.261719 156.6875 597.066406 117.058594 597.066406 117.058594 C 597.066406 117.058594 561.390625 123.648438 574.175781 147.8125 " fill-opacity="1" fill-rule="nonzero"/><path fill="#aa4a4f" d="M 554.949219 84.089844 C 554.949219 84.089844 555.195312 84.019531 555.628906 83.890625 C 556.027344 83.789062 556.5625 83.640625 557.167969 83.539062 C 557.761719 83.457031 558.425781 83.320312 559.089844 83.320312 C 559.410156 83.351562 559.761719 83.21875 560.082031 83.265625 C 560.414062 83.265625 560.757812 83.308594 561.078125 83.28125 L 562.03125 83.328125 C 562.351562 83.339844 562.683594 83.46875 562.96875 83.429688 C 563.570312 83.429688 564.222656 83.640625 564.773438 83.699219 C 565.851562 83.769531 566.972656 84.089844 566.972656 84.089844 L 567.109375 84.320312 C 567.109375 84.320312 566.382812 84.667969 565.304688 85.1875 C 564.765625 85.457031 564.046875 85.519531 563.316406 85.707031 C 562.59375 85.921875 561.785156 85.839844 560.980469 85.910156 C 560.578125 85.910156 560.183594 85.820312 559.796875 85.78125 C 559.402344 85.71875 559.015625 85.703125 558.65625 85.601562 C 557.933594 85.417969 557.253906 85.277344 556.691406 85.070312 C 555.550781 84.699219 554.84375 84.332031 554.84375 84.332031 L 554.949219 84.089844 " fill-opacity="1" fill-rule="nonzero"/><path fill="#3a2838" d="M 530.296875 73.328125 L 532.9375 71.570312 C 532.203125 69.953125 531.035156 63.578125 531.035156 63.578125 C 534.398438 65.027344 538.355469 51.730469 540.046875 51.730469 C 541.726562 51.730469 540.550781 47.917969 547.867188 51.292969 C 555.191406 54.65625 558.851562 47.628906 561.886719 50.847656 C 564.929688 54.066406 572.230469 53.011719 572.230469 53.011719 C 572.230469 53.011719 576.132812 38.6875 576.132812 36.058594 C 576.132812 33.417969 561.886719 31.070312 561.886719 31.070312 C 557.453125 28.441406 546.988281 31.070312 544.0625 30.347656 C 541.140625 29.609375 526.058594 34.15625 521.8125 42.359375 C 517.5625 50.554688 522.519531 63.578125 522.519531 63.578125 C 522.519531 63.578125 527.886719 72.457031 530.296875 73.328125 " fill-opacity="1" fill-rule="nonzero"/><path fill="#1b1c28" d="M 527.113281 257.078125 C 527.113281 257.078125 559.449219 324.457031 565.113281 512.335938 L 595.089844 512.335938 L 588.265625 255.492188 L 527.113281 257.078125 " fill-opacity="1" fill-rule="nonzero"/><path fill="#1b1c28" d="M 531.769531 257.667969 L 532.21875 211.664062 L 537.929688 165.679688 C 537.929688 165.679688 567.539062 124.007812 571.761719 105.589844 C 571.761719 105.589844 596.964844 116.332031 599.949219 118.742188 C 599.949219 118.742188 591.351562 240.085938 595.089844 264.105469 C 595.089844 264.105469 543.785156 267.628906 531.769531 257.667969 " fill-opacity="1" fill-rule="nonzero"/><path fill="#27283b" d="M 537.867188 168.027344 C 537.867188 168.027344 563.144531 153.289062 571.761719 141.324219 L 569.386719 135.511719 L 577.75 135.511719 C 577.75 135.511719 584.554688 117.710938 583.667969 109.363281 L 571.410156 105.039062 L 537.929688 165.679688 L 537.867188 168.027344 " fill-opacity="1" fill-rule="nonzero"/><path fill="#343650" d="M 541.320312 218.261719 C 541.320312 219.710938 540.148438 220.890625 538.691406 220.890625 C 537.238281 220.890625 536.066406 219.710938 536.066406 218.261719 C 536.066406 216.808594 537.238281 215.628906 538.691406 215.628906 C 540.148438 215.628906 541.320312 216.808594 541.320312 218.261719 " fill-opacity="1" fill-rule="nonzero"/><path fill="#4f547d" d="M 537.652344 219.375 C 538.023438 218.0625 538.632812 216.835938 539.429688 215.742188 C 539.191406 215.671875 538.949219 215.628906 538.691406 215.628906 C 537.238281 215.628906 536.066406 216.808594 536.066406 218.261719 C 536.066406 219.246094 536.613281 220.089844 537.40625 220.542969 C 537.46875 220.144531 537.554688 219.757812 537.652344 219.375 " fill-opacity="1" fill-rule="nonzero"/><path fill="#343650" d="M 541.320312 241.640625 C 541.320312 243.097656 540.148438 244.277344 538.691406 244.277344 C 537.238281 244.277344 536.066406 243.097656 536.066406 241.640625 C 536.066406 240.1875 537.238281 239.011719 538.691406 239.011719 C 540.148438 239.011719 541.320312 240.1875 541.320312 241.640625 " fill-opacity="1" fill-rule="nonzero"/><path fill="#4f547d" d="M 537.652344 242.753906 C 538.023438 241.441406 538.632812 240.214844 539.429688 239.125 C 539.191406 239.058594 538.949219 239.011719 538.691406 239.011719 C 537.238281 239.011719 536.066406 240.1875 536.066406 241.640625 C 536.066406 242.625 536.613281 243.472656 537.40625 243.921875 C 537.46875 243.53125 537.554688 243.140625 537.652344 242.753906 " fill-opacity="1" fill-rule="nonzero"/><path fill="#ee284a" d="M 532.992188 127.746094 L 541.835938 127.214844 L 542.792969 143.054688 C 542.792969 143.054688 535.558594 145.417969 532.128906 143.199219 C 528.6875 140.992188 532.992188 127.746094 532.992188 127.746094 " fill-opacity="1" fill-rule="nonzero"/><path fill="#d16155" d="M 775.890625 174.679688 C 775.890625 174.679688 758.167969 239.328125 769.617188 256.734375 C 781.066406 274.148438 785.636719 254.910156 785.636719 254.910156 L 799.328125 193.609375 C 799.328125 193.609375 792.003906 168.796875 775.890625 174.679688 " fill-opacity="1" fill-rule="nonzero"/><path fill="#d16155" d="M 718.976562 295.125 C 718.976562 295.125 715.140625 284.167969 708.558594 285.058594 C 701.980469 285.960938 686.101562 288.636719 686.792969 291.316406 C 687.476562 293.984375 702.878906 290.9375 702.835938 293.769531 C 702.789062 296.59375 696.917969 298.554688 690.167969 308.238281 C 690.167969 308.238281 706.609375 332.144531 718.976562 295.125 " fill-opacity="1" fill-rule="nonzero"/><path fill="#d16155" d="M 784.210938 260.515625 C 784.210938 260.515625 744.980469 287.246094 713.964844 296.78125 C 713.964844 296.78125 706.972656 292.410156 713.273438 284.675781 C 719.570312 276.941406 751.613281 250.4375 766.3125 246.371094 C 781.019531 242.304688 784.210938 260.515625 784.210938 260.515625 " fill-opacity="1" fill-rule="nonzero"/><path fill="#b7c7cf" d="M 710.640625 282.429688 L 721.421875 296.78125 C 721.421875 296.78125 722.808594 298.515625 724.078125 295.617188 C 725.335938 292.714844 730.285156 294.773438 732.355469 293 C 734.414062 291.230469 784.671875 265.515625 784.671875 265.515625 C 784.671875 265.515625 807.476562 170.335938 798.574219 167.089844 C 789.679688 163.832031 776.597656 154.96875 763.039062 205.511719 C 760.125 218.8125 757.46875 247.777344 757.46875 247.777344 L 710.640625 282.429688 " fill-opacity="1" fill-rule="nonzero"/><path fill="#1b1c28" d="M 862.476562 502.351562 C 862.476562 502.351562 870.539062 521.996094 866.289062 523.585938 C 862.042969 525.175781 815.328125 538.460938 802.589844 523.585938 C 797.285156 514.558594 828.792969 514.558594 834.800781 508.1875 C 840.808594 501.8125 844.359375 495.449219 844.359375 495.449219 L 862.476562 502.351562 " fill-opacity="1" fill-rule="nonzero"/><path fill="#1b1c28" d="M 826.433594 484.058594 C 826.433594 484.058594 838.691406 496.3125 835.996094 498.851562 C 833.296875 501.386719 802.277344 526.109375 787.996094 518.921875 C 781.15625 513.789062 804.894531 503.863281 807.421875 497.167969 C 809.941406 490.472656 810.609375 484.558594 810.609375 484.558594 L 826.433594 484.058594 " fill-opacity="1" fill-rule="nonzero"/><path fill="#3e83b2" d="M 820.925781 136.074219 L 826.199219 140.332031 L 834.941406 153.863281 L 814 155.015625 L 820.925781 136.074219 " fill-opacity="1" fill-rule="nonzero"/><path fill="#151723" d="M 839.0625 296.652344 L 797.671875 416.011719 L 763.039062 405.320312 L 792.640625 291.707031 L 839.0625 296.652344 " fill-opacity="1" fill-rule="nonzero"/><path fill="#1d2132" d="M 810.996094 290.265625 L 838.300781 501.25 L 863.644531 506.082031 L 854.136719 282.429688 L 810.996094 290.265625 " fill-opacity="1" fill-rule="nonzero"/><path fill="#3e83b2" d="M 831.175781 151.175781 C 808.621094 145.410156 774.214844 158.113281 775.226562 185.117188 C 775.960938 204.675781 792.640625 291.707031 792.640625 291.707031 L 856.445312 298.5 C 853.140625 270.765625 860.230469 171.308594 860.238281 171.230469 C 860.761719 163.5 840.972656 154.683594 835.210938 152.464844 C 833.921875 151.957031 832.574219 151.527344 831.175781 151.175781 " fill-opacity="1" fill-rule="nonzero"/><path fill="#d5dfe4" d="M 872.414062 378.273438 C 843.605469 394.238281 819.390625 380.492188 819.390625 380.492188 C 826.199219 349.902344 825.121094 295.164062 825.121094 295.164062 C 824.324219 286.597656 823.214844 278.03125 821.785156 269.414062 C 818.296875 248.460938 813.902344 227.71875 813.597656 206.394531 C 813.441406 194.992188 813.710938 183.570312 814.199219 172.167969 C 814.328125 169.34375 814.460938 166.511719 814.621094 163.6875 C 814.664062 162.878906 814.71875 162.074219 814.789062 161.289062 L 815.0625 158.828125 C 815.371094 157.074219 815.832031 155.34375 816.421875 153.648438 C 816.320312 154.03125 816.449219 153.835938 816.835938 153.070312 C 816.742188 153.402344 818.308594 151.394531 818.386719 151.3125 C 818.914062 150.828125 819.351562 150.324219 819.769531 149.804688 C 823.746094 149.816406 827.601562 150.257812 831.175781 151.175781 C 832.574219 151.527344 833.914062 151.957031 835.210938 152.453125 C 838.054688 153.558594 844.285156 156.242188 849.824219 159.621094 C 855.539062 163.097656 860.503906 167.296875 860.238281 171.230469 C 860.238281 171.265625 858.914062 189.699219 857.683594 212.90625 C 857.355469 219.132812 857.027344 225.695312 856.734375 232.34375 C 860.15625 239.679688 864.433594 248.421875 869.34375 260.414062 C 870.347656 262.851562 871.363281 265.441406 872.414062 268.160156 C 874.359375 273.195312 875.800781 278.691406 876.867188 284.472656 C 884.257812 324.777344 872.414062 378.273438 872.414062 378.273438 " fill-opacity="1" fill-rule="nonzero"/><path fill="#b5d5e3" d="M 876.867188 284.472656 L 876.625 284.730469 C 874.410156 287.386719 869.976562 293.613281 869.976562 293.613281 L 868.019531 285.847656 C 864.363281 288.835938 861.96875 290.734375 861.96875 290.734375 C 861.058594 291.304688 860.183594 291.832031 859.332031 292.316406 C 858.601562 291.140625 857.875 289.957031 857.167969 288.757812 C 855 285.050781 852.882812 281.332031 850.660156 277.691406 L 850.8125 277.550781 C 851.472656 276.773438 850.085938 275.289062 848.09375 273.597656 C 846.152344 270.609375 844.089844 267.710938 841.832031 264.941406 C 843.984375 265.339844 847.59375 267.015625 851.226562 268.925781 C 854.871094 270.839844 858.550781 273.019531 860.859375 274.445312 C 861.636719 273.433594 862.734375 271.96875 864.0625 270.175781 L 863.714844 268.761719 C 863.714844 268.761719 866.214844 265.261719 869.34375 260.414062 C 870.347656 262.851562 871.363281 265.441406 872.414062 268.160156 C 874.359375 273.195312 875.800781 278.691406 876.867188 284.472656 " fill-opacity="1" fill-rule="nonzero"/><path fill="#d5dfe4" d="M 792.78125 271.277344 C 788.667969 247.65625 790.804688 223.550781 790.859375 199.484375 C 790.886719 187.554688 791.136719 175.589844 791.925781 163.6875 C 792.074219 161.40625 792.28125 159.097656 792.589844 156.824219 C 782.207031 162.761719 770.003906 174.363281 772.570312 186.890625 C 785.007812 247.550781 755.640625 386.289062 755.640625 386.289062 L 792.625 372.066406 C 791.859375 364.699219 794.078125 278.703125 792.78125 271.277344 " fill-opacity="1" fill-rule="nonzero"/><path fill="#1a242a" d="M 777.128906 183.132812 L 776.886719 183.109375 C 776.007812 182.976562 775.398438 182.15625 775.539062 181.273438 C 775.71875 180.050781 780.332031 151.335938 800.5 149.722656 C 801.394531 149.648438 802.167969 150.324219 802.242188 151.207031 C 802.304688 152.085938 801.648438 152.867188 800.761719 152.941406 C 783.105469 154.339844 778.765625 181.488281 778.71875 181.761719 C 778.601562 182.554688 777.921875 183.132812 777.128906 183.132812 " fill-opacity="1" fill-rule="nonzero"/><path fill="#b0d4e3" d="M 790.445312 222.609375 L 792.78125 155.015625 C 792.78125 155.015625 783.886719 158.363281 778.285156 165.90625 L 786.78125 179.425781 L 779.566406 185.632812 L 790.445312 222.609375 " fill-opacity="1" fill-rule="nonzero"/><path fill="#d16155" d="M 856.257812 169.546875 C 856.257812 169.546875 909.085938 211.804688 910.074219 232.8125 C 911.066406 253.832031 895.910156 240.832031 895.910156 240.832031 L 848.359375 198.917969 C 848.359375 198.917969 839.601562 174.332031 856.257812 169.546875 " fill-opacity="1" fill-rule="nonzero"/><path fill="#d16155" d="M 862.90625 280.996094 C 862.90625 280.996094 894.292969 240.441406 894.84375 228.542969 C 895.40625 216.652344 908.476562 226.316406 908.476562 226.316406 C 908.476562 226.316406 916.8125 246.675781 908.097656 257.601562 C 899.375 268.53125 865.289062 295.617188 865.289062 295.617188 C 865.289062 295.617188 863.417969 288.140625 862.90625 280.996094 " fill-opacity="1" fill-rule="nonzero"/><path fill="#d16155" d="M 851.414062 278.472656 C 853.40625 280.164062 854.804688 281.648438 854.136719 282.429688 L 853.984375 282.570312 C 856.203125 286.207031 858.320312 289.933594 860.5 293.632812 C 861.207031 294.832031 861.925781 296.015625 862.660156 297.203125 C 863.503906 296.707031 864.382812 296.179688 865.289062 295.617188 C 865.289062 295.617188 869.875 282.859375 864.183594 279.328125 C 859.566406 276.480469 849.46875 270.621094 845.15625 269.816406 C 847.417969 272.585938 849.480469 275.484375 851.414062 278.472656 " fill-opacity="1" fill-rule="nonzero"/><path fill="#3e83b2" d="M 819.390625 150.394531 L 810.636719 136.863281 L 787.765625 152.851562 L 786.726562 173.164062 L 819.390625 150.394531 " fill-opacity="1" fill-rule="nonzero"/><path fill="#be574c" d="M 817.949219 118.878906 L 824.375 155.996094 C 824.375 155.996094 810.527344 176.285156 795.191406 172.832031 L 795.191406 138.886719 L 817.949219 118.878906 " fill-opacity="1" fill-rule="nonzero"/><path fill="#d16155" d="M 797.863281 145.5 L 783.351562 142.621094 C 783.351562 142.621094 773.535156 105.359375 781.242188 88.730469 C 788.933594 72.085938 821.027344 70.367188 824.964844 92.847656 C 828.898438 115.324219 822.957031 125.25 822.957031 125.25 L 797.863281 145.5 " fill-opacity="1" fill-rule="nonzero"/><path fill="#151723" d="M 793.976562 398.226562 L 832.3125 488.089844 L 810.25 490.746094 L 763.039062 405.320312 L 793.976562 398.226562 " fill-opacity="1" fill-rule="nonzero"/><path fill="#3e83b2" d="M 830.335938 153.863281 L 825.535156 141.324219 L 799.328125 159.125 L 797.671875 176.628906 L 830.335938 153.863281 " fill-opacity="1" fill-rule="nonzero"/><path fill="#3e83b2" d="M 834.941406 153.863281 L 826.199219 140.332031 L 799.328125 159.125 L 802.289062 176.628906 L 834.941406 153.863281 " fill-opacity="1" fill-rule="nonzero"/><path fill="#211921" d="M 810.90625 109.121094 C 810.894531 109.121094 810.121094 108.558594 808.75 107.839844 C 807.402344 107.132812 805.488281 106.339844 803.484375 105.988281 C 802.484375 105.808594 801.460938 105.761719 800.5 105.859375 C 800.046875 105.957031 799.558594 105.957031 799.144531 106.109375 C 798.738281 106.261719 798.304688 106.339844 797.964844 106.539062 C 797.265625 106.867188 796.699219 107.207031 796.359375 107.53125 C 795.988281 107.8125 795.777344 107.980469 795.777344 107.980469 C 795.777344 107.980469 795.964844 107.789062 796.273438 107.4375 C 796.578125 107.070312 797.082031 106.636719 797.773438 106.167969 C 798.09375 105.910156 798.519531 105.761719 798.941406 105.53125 C 799.363281 105.296875 799.863281 105.210938 800.351562 105.027344 C 801.359375 104.769531 802.484375 104.640625 803.601562 104.660156 C 808.128906 104.738281 812.25 106.828125 812.25 106.828125 L 810.90625 109.121094 " fill-opacity="1" fill-rule="nonzero"/><path fill="#211921" d="M 776.429688 106.066406 C 776.410156 106.089844 776.625 105.976562 776.925781 105.859375 C 777.238281 105.730469 777.679688 105.582031 778.214844 105.441406 C 779.28125 105.171875 780.75 104.953125 782.195312 105.222656 C 782.914062 105.328125 783.605469 105.558594 784.1875 105.875 C 784.777344 106.167969 785.285156 106.519531 785.652344 106.875 C 786.421875 107.546875 786.753906 108.144531 786.78125 108.117188 C 786.765625 108.144531 786.289062 107.648438 785.414062 107.21875 C 785.003906 106.976562 784.46875 106.785156 783.90625 106.667969 C 783.335938 106.527344 782.71875 106.492188 782.121094 106.542969 C 780.914062 106.628906 779.785156 107.117188 779.015625 107.539062 C 778.203125 107.980469 777.824219 108.328125 777.824219 108.328125 L 776.429688 106.066406 " fill-opacity="1" fill-rule="nonzero"/><path fill="#ffffff" d="M 802.214844 127.417969 C 802.214844 127.417969 792.992188 128.730469 785.738281 127.097656 L 786.390625 130.960938 C 786.390625 130.960938 797.414062 133.304688 802.214844 127.417969 " fill-opacity="1" fill-rule="nonzero"/><path fill="#211921" d="M 805.550781 108.605469 C 805.550781 108.605469 803.023438 107.117188 801.929688 107.1875 L 801.820312 107.179688 C 800.789062 107.179688 799.960938 108.3125 799.960938 109.710938 C 799.960938 111.109375 800.789062 112.25 801.820312 112.25 C 802.835938 112.25 803.675781 111.109375 803.675781 109.710938 C 803.675781 109.207031 803.558594 108.726562 803.371094 108.328125 C 804.191406 108.285156 805.09375 108.3125 805.550781 108.605469 " fill-opacity="1" fill-rule="nonzero"/><path fill="#211921" d="M 779.566406 108.699219 C 779.566406 108.699219 781.863281 107.335938 782.875 107.40625 L 782.976562 107.390625 C 783.914062 107.390625 784.671875 108.429688 784.671875 109.710938 C 784.671875 110.984375 783.914062 112.027344 782.976562 112.027344 C 782.039062 112.027344 781.273438 110.984375 781.273438 109.710938 C 781.273438 109.25 781.375 108.816406 781.550781 108.445312 C 780.808594 108.414062 779.988281 108.429688 779.566406 108.699219 " fill-opacity="1" fill-rule="nonzero"/><path fill="#ac4f44" d="M 788.050781 119.941406 L 786.277344 117.203125 L 792.78125 118.570312 Z M 788.050781 119.941406 " fill-opacity="1" fill-rule="nonzero"/><path fill="#4d2c35" d="M 791.59375 69.390625 C 791.59375 69.390625 778.765625 69.390625 779.566406 75.160156 C 779.566406 75.160156 768.695312 73.828125 768.695312 80.917969 C 768.695312 88.011719 778.285156 95.257812 778.285156 95.257812 C 778.285156 95.257812 781.847656 97.769531 783.765625 95.257812 C 785.6875 92.746094 792.042969 97.914062 792.78125 93.628906 C 793.515625 89.34375 801.496094 97.914062 802.757812 93.484375 C 804.007812 89.050781 805.984375 96.582031 811.574219 92.894531 C 817.15625 89.195312 812.972656 99.691406 817.140625 102.5 C 821.296875 105.300781 821.179688 107.316406 819.390625 109.710938 C 817.601562 112.105469 819.390625 114.613281 819.390625 114.613281 L 823.660156 114.613281 C 823.660156 114.613281 822.738281 108.171875 824.480469 105.863281 C 826.203125 103.554688 822.148438 95.847656 824.375 94.363281 C 826.609375 92.894531 826.160156 114.144531 825.492188 117.203125 C 825.492188 117.203125 832.375 119.203125 833.554688 112.84375 C 834.738281 106.492188 835.765625 103.683594 838.433594 102.207031 C 841.097656 100.722656 841.390625 96.875 840.359375 91.117188 C 839.316406 85.355469 837.46875 89.195312 840.910156 82.988281 C 844.34375 76.777344 842.125 72.636719 839.761719 71.902344 C 837.394531 71.164062 831.335938 69.835938 831.335938 66.734375 C 831.335938 63.628906 827.210938 63.039062 824.480469 62.890625 C 821.738281 62.738281 822.878906 65.25 814.777344 61.117188 C 806.667969 56.976562 804.753906 60.230469 800.910156 62.449219 C 797.066406 64.667969 797.210938 71.902344 791.59375 69.390625 " fill-opacity="1" fill-rule="nonzero"/><path fill="#d5dfe4" d="M 830.335938 192.945312 C 830.335938 192.945312 879.25 231.941406 883.9375 237.726562 C 888.636719 243.519531 867.035156 273.644531 867.035156 273.644531 L 873.296875 298.5 C 873.296875 298.5 877.738281 292.265625 879.957031 289.601562 C 882.167969 286.945312 924.28125 251.914062 918.957031 240.394531 C 913.636719 228.855469 872.960938 165.546875 850.96875 164.175781 C 828.972656 162.792969 830.335938 192.945312 830.335938 192.945312 " fill-opacity="1" fill-rule="nonzero"/><path fill="#1a242a" d="M 840.320312 203.96875 C 840.320312 203.96875 840.394531 203.742188 840.535156 203.332031 C 840.671875 202.90625 840.871094 202.292969 841.121094 201.5 C 841.609375 199.917969 842.308594 197.652344 843.023438 194.894531 C 843.394531 193.523438 843.742188 192.023438 844.113281 190.4375 C 844.476562 188.851562 844.835938 187.179688 845.152344 185.429688 C 845.460938 183.695312 845.757812 181.890625 845.964844 180.050781 C 846.207031 178.210938 846.335938 176.34375 846.421875 174.476562 C 846.464844 173.542969 846.453125 172.617188 846.476562 171.691406 C 846.425781 170.769531 846.4375 169.835938 846.347656 168.949219 C 846.261719 168.046875 846.191406 167.148438 846.03125 166.289062 C 845.921875 165.40625 845.71875 164.570312 845.527344 163.75 C 845.441406 163.328125 845.3125 162.941406 845.179688 162.546875 C 845.050781 162.160156 844.925781 161.769531 844.796875 161.390625 C 844.644531 161.019531 844.488281 160.660156 844.320312 160.3125 C 844.175781 159.953125 844.015625 159.589844 843.816406 159.289062 C 843.4375 158.648438 843.089844 157.992188 842.617188 157.480469 C 842.410156 157.210938 842.207031 156.921875 841.984375 156.675781 C 841.75 156.445312 841.507812 156.214844 841.277344 155.996094 C 840.839844 155.519531 840.3125 155.195312 839.84375 154.839844 C 839.382812 154.457031 838.878906 154.222656 838.417969 153.953125 C 837.523438 153.367188 836.597656 153.097656 835.890625 152.722656 C 835.144531 152.429688 834.527344 152.246094 834.121094 152.070312 C 833.699219 151.894531 833.480469 151.800781 833.480469 151.800781 L 833.414062 151.773438 C 833.128906 151.65625 833.003906 151.335938 833.113281 151.058594 L 833.601562 150.714844 C 833.601562 150.714844 833.847656 150.707031 834.320312 150.675781 C 834.796875 150.675781 835.492188 150.632812 836.386719 150.734375 C 836.828125 150.804688 837.316406 150.902344 837.855469 151.019531 C 838.113281 151.082031 838.40625 151.109375 838.6875 151.222656 C 838.960938 151.324219 839.242188 151.441406 839.546875 151.566406 C 839.84375 151.683594 840.160156 151.800781 840.46875 151.941406 C 840.792969 152.070312 841.070312 152.300781 841.378906 152.476562 C 841.996094 152.863281 842.65625 153.253906 843.21875 153.824219 C 843.511719 154.09375 843.816406 154.367188 844.128906 154.652344 C 844.414062 154.945312 844.675781 155.289062 844.949219 155.609375 C 845.53125 156.242188 845.988281 156.996094 846.464844 157.773438 C 846.722656 158.148438 846.914062 158.550781 847.105469 158.96875 C 847.300781 159.382812 847.503906 159.804688 847.707031 160.226562 C 847.863281 160.671875 848.019531 161.109375 848.183594 161.550781 C 848.351562 162 848.503906 162.457031 848.617188 162.910156 C 848.734375 163.371094 848.859375 163.84375 848.988281 164.308594 C 849.105469 164.78125 849.160156 165.257812 849.25 165.75 C 849.453125 166.703125 849.542969 167.679688 849.644531 168.664062 C 849.773438 169.636719 849.773438 170.625 849.847656 171.617188 C 849.847656 172.605469 849.875 173.601562 849.847656 174.585938 C 849.773438 176.566406 849.636719 178.53125 849.398438 180.449219 C 849.195312 182.375 848.886719 184.246094 848.570312 186.054688 C 848.25 187.851562 847.890625 189.585938 847.519531 191.226562 C 847.132812 192.855469 846.730469 194.378906 846.347656 195.800781 C 845.554688 198.601562 844.824219 200.929688 844.265625 202.539062 C 843.984375 203.351562 843.753906 203.972656 843.59375 204.40625 C 843.425781 204.847656 843.347656 205.078125 843.347656 205.078125 C 843.035156 205.90625 842.097656 206.332031 841.269531 206.019531 C 840.449219 205.703125 840.035156 204.808594 840.3125 203.996094 L 840.320312 203.96875 " fill-opacity="1" fill-rule="nonzero"/><path fill="#b0d4e3" d="M 815.007812 226.890625 L 828.535156 182.082031 L 819.390625 178.3125 L 841.832031 153.484375 C 841.832031 153.484375 829.648438 147.054688 821.441406 147.496094 C 821.441406 147.496094 805.015625 160.050781 815.007812 226.890625 " fill-opacity="1" fill-rule="nonzero"/><path fill="#4d2c35" d="M 788.050781 119.941406 C 788.050781 119.941406 780.101562 121.574219 780.234375 127.484375 C 780.234375 127.484375 796.6875 131.316406 803.675781 126.738281 C 803.675781 126.738281 803.269531 119.203125 788.050781 119.941406 " fill-opacity="1" fill-rule="nonzero"/><path fill="#757c82" d="M 839.828125 213.433594 L 838.289062 212.933594 L 841.070312 204.277344 L 842.601562 204.765625 L 839.828125 213.433594 " fill-opacity="1" fill-rule="nonzero"/><path fill="#1a242a" d="M 843.960938 216.539062 C 843.960938 219.679688 841.421875 222.21875 838.289062 222.21875 C 835.160156 222.21875 832.621094 219.679688 832.621094 216.539062 C 832.621094 213.40625 835.160156 210.867188 838.289062 210.867188 C 841.421875 210.867188 843.960938 213.40625 843.960938 216.539062 " fill-opacity="1" fill-rule="nonzero"/><path fill="#314754" d="M 842.023438 216.539062 C 842.023438 218.601562 840.351562 220.269531 838.289062 220.269531 C 836.238281 220.269531 834.566406 218.601562 834.566406 216.539062 C 834.566406 214.484375 836.238281 212.816406 838.289062 212.816406 C 840.351562 212.816406 842.023438 214.484375 842.023438 216.539062 " fill-opacity="1" fill-rule="nonzero"/><path fill="#1a242a" d="M 776.46875 236.761719 L 776.277344 236.738281 C 776.191406 236.734375 767.667969 235.265625 767.003906 225.351562 C 763.355469 193.566406 775.109375 181.402344 775.613281 180.902344 C 776.078125 180.4375 776.855469 180.4375 777.320312 180.902344 C 777.792969 181.375 777.792969 182.140625 777.320312 182.605469 C 777.191406 182.734375 765.910156 194.59375 769.402344 225.132812 C 769.949219 233.199219 776.585938 234.339844 776.652344 234.351562 C 777.316406 234.457031 777.765625 235.074219 777.664062 235.738281 C 777.566406 236.332031 777.058594 236.761719 776.46875 236.761719 " fill-opacity="1" fill-rule="nonzero"/><path fill="#37505f" d="M 775.5 234.644531 C 775.5 234.644531 778.074219 233.03125 780.292969 234.644531 C 782.507812 236.253906 779.613281 238.265625 779.195312 238.0625 C 778.785156 237.863281 772.632812 237.367188 775.5 234.644531 " fill-opacity="1" fill-rule="nonzero"/><path fill="#1a242a" d="M 775.125 240.050781 C 773.414062 240.050781 772.210938 239.5 772.125 239.460938 C 771.519531 239.175781 771.261719 238.460938 771.546875 237.855469 C 771.824219 237.242188 772.546875 236.992188 773.152344 237.273438 C 773.238281 237.3125 775.589844 238.339844 778.074219 236.761719 C 780.882812 234.972656 784.285156 229.636719 784.519531 214.375 C 784.976562 186.324219 778.324219 182.910156 778.257812 182.875 C 777.636719 182.644531 777.332031 181.964844 777.566406 181.332031 C 777.792969 180.710938 778.515625 180.390625 779.140625 180.621094 C 779.988281 180.929688 787.417969 184.53125 786.941406 214.414062 C 786.738281 227.585938 784.171875 235.800781 779.320312 238.839844 C 777.820312 239.777344 776.339844 240.050781 775.125 240.050781 " fill-opacity="1" fill-rule="nonzero"/><path fill="#37505f" d="M 773.917969 237.371094 C 773.917969 237.371094 771.835938 235.164062 769.285156 236.171875 C 766.734375 237.171875 769.039062 239.851562 769.488281 239.761719 C 769.929688 239.664062 776.019531 240.730469 773.917969 237.371094 " fill-opacity="1" fill-rule="nonzero"/></svg>