<svg xmlns="http://www.w3.org/2000/svg" xmlns:xlink="http://www.w3.org/1999/xlink" width="1280" zoomAndPan="magnify" viewBox="0 0 960 593.999999" height="792" preserveAspectRatio="xMidYMid meet" version="1.0"><defs><clipPath id="eca3aa5dc8"><path d="M 513 506 L 688 506 L 688 562.554688 L 513 562.554688 Z M 513 506 " clip-rule="nonzero"/></clipPath></defs><g clip-path="url(#eca3aa5dc8)"><path fill="#c4c6e3" d="M 609.511719 508.007812 C 609.511719 508.007812 503.460938 527.6875 514.175781 542.300781 C 524.890625 556.90625 591.777344 569.5625 637.207031 559.820312 C 682.632812 550.09375 641.640625 543.570312 673.339844 535.628906 C 705.027344 527.6875 682.441406 500.988281 609.511719 508.007812 " fill-opacity="1" fill-rule="nonzero"/></g><path fill="#c4c6e3" d="M 359.523438 506.222656 C 359.523438 506.222656 465.566406 525.898438 454.855469 540.503906 C 444.144531 555.121094 377.253906 567.78125 331.828125 558.035156 C 286.398438 548.296875 327.398438 541.785156 295.707031 533.847656 C 264.007812 525.898438 286.59375 499.207031 359.523438 506.222656 " fill-opacity="1" fill-rule="nonzero"/><path fill="#c4c6e3" d="M 109.242188 498.027344 C 109.242188 498.027344 3.210938 517.703125 13.917969 532.320312 C 24.628906 546.925781 91.527344 559.585938 136.949219 549.851562 C 182.371094 540.109375 141.382812 533.59375 173.070312 525.652344 C 204.769531 517.703125 182.179688 491.011719 109.242188 498.027344 " fill-opacity="1" fill-rule="nonzero"/><path fill="#181a28" d="M 319.929688 190.902344 L 319.933594 190.878906 C 320.03125 190.625 321.167969 187.734375 323.496094 185.003906 C 325.847656 182.261719 329.246094 179.742188 334.078125 179.742188 C 334.371094 179.742188 334.667969 179.75 334.960938 179.769531 L 335.148438 176.824219 C 334.789062 176.808594 334.429688 176.796875 334.078125 176.796875 C 331.035156 176.796875 328.398438 177.632812 326.230469 178.886719 C 322.972656 180.773438 320.738281 183.515625 319.28125 185.769531 C 317.839844 188.03125 317.1875 189.824219 317.160156 189.894531 L 319.929688 190.902344 " fill-opacity="1" fill-rule="nonzero"/><path fill="#1b1c28" d="M 410.222656 515.671875 C 410.222656 515.671875 418.222656 535.121094 414.011719 536.707031 C 409.800781 538.292969 363.503906 551.441406 350.871094 536.707031 C 345.613281 527.757812 376.84375 527.757812 382.800781 521.445312 C 388.757812 515.125 392.261719 508.816406 392.261719 508.816406 L 410.222656 515.671875 " fill-opacity="1" fill-rule="nonzero"/><path fill="#1b1c28" d="M 375.433594 490.898438 C 375.433594 490.898438 387.578125 503.042969 384.90625 505.554688 C 382.238281 508.070312 351.488281 532.566406 337.335938 525.4375 C 330.558594 520.359375 354.089844 510.519531 356.59375 503.886719 C 359.089844 497.25 359.742188 491.386719 359.742188 491.386719 L 375.433594 490.898438 " fill-opacity="1" fill-rule="nonzero"/><path fill="#e0788a" d="M 334.136719 180.503906 C 334.136719 180.503906 279.832031 218.75 277.609375 239.28125 C 275.386719 259.824219 291.007812 247.996094 291.007812 247.996094 L 340.121094 209.765625 C 340.121094 209.765625 350.175781 186.183594 334.136719 180.503906 " fill-opacity="1" fill-rule="nonzero"/><path fill="#e0788a" d="M 214.703125 236.6875 C 214.703125 236.6875 218.664062 225.902344 213.074219 222.429688 C 207.472656 218.964844 193.644531 211 192.484375 213.472656 C 191.328125 215.953125 205.027344 223.351562 203.210938 225.476562 C 201.394531 227.605469 195.667969 225.398438 184.402344 228.546875 C 184.402344 228.546875 181.898438 257.203125 214.703125 236.6875 " fill-opacity="1" fill-rule="nonzero"/><path fill="#e0788a" d="M 286.382812 251.382812 C 286.382812 251.382812 239.535156 247.074219 209.820312 234.792969 C 209.820312 234.792969 207.222656 227.042969 216.917969 225.097656 C 226.609375 223.167969 267.816406 223.109375 281.621094 229.285156 C 295.421875 235.445312 286.382812 251.382812 286.382812 251.382812 " fill-opacity="1" fill-rule="nonzero"/><path fill="#181b29" d="M 340.640625 209.386719 C 340.640625 209.386719 321.90625 233.855469 309.617188 241.332031 L 285.386719 213.582031 L 332.019531 180.503906 C 332.019531 180.503906 345.484375 194.523438 340.640625 209.386719 " fill-opacity="1" fill-rule="nonzero"/><path fill="#3c4d67" d="M 369.054688 152.652344 L 374.265625 156.882812 L 382.945312 170.285156 L 362.179688 171.425781 L 369.054688 152.652344 " fill-opacity="1" fill-rule="nonzero"/><path fill="#151723" d="M 387.019531 311.792969 L 334.726562 433.683594 L 313.539062 405.5625 L 341.015625 306.902344 L 387.019531 311.792969 " fill-opacity="1" fill-rule="nonzero"/><path fill="#1d2132" d="M 359.210938 305.476562 L 386.265625 514.5625 L 411.378906 519.359375 L 401.960938 297.703125 L 359.210938 305.476562 " fill-opacity="1" fill-rule="nonzero"/><path fill="#1d2132" d="M 379.199219 167.628906 C 356.855469 161.90625 322.753906 174.511719 323.765625 201.265625 C 324.488281 220.648438 341.015625 306.902344 341.015625 306.902344 L 404.242188 313.636719 C 400.96875 286.152344 407.996094 187.585938 408.003906 187.496094 C 408.53125 179.835938 388.914062 171.105469 383.203125 168.898438 C 381.925781 168.398438 380.582031 167.976562 379.199219 167.628906 " fill-opacity="1" fill-rule="nonzero"/><path fill="#181a28" d="M 350.84375 189.476562 L 362.179688 305.144531 L 354.667969 305.144531 L 343.542969 189.082031 L 350.84375 189.476562 " fill-opacity="1" fill-rule="nonzero"/><path fill="#0e0d0c" d="M 339.992188 301.53125 L 338.652344 313.636719 C 338.652344 313.636719 380.269531 326.558594 402.9375 320.691406 L 402.117188 301.53125 C 402.117188 301.53125 369.15625 305.515625 339.992188 301.53125 " fill-opacity="1" fill-rule="nonzero"/><path fill="#23202a" d="M 379.554688 320.550781 L 369.765625 320.550781 L 369.765625 295.824219 L 379.554688 295.824219 L 379.554688 320.550781 " fill-opacity="1" fill-rule="nonzero"/><path fill="#15181a" d="M 380.648438 327.925781 L 368.671875 327.925781 L 368.671875 308.90625 L 380.648438 296.890625 L 380.648438 327.925781 " fill-opacity="1" fill-rule="nonzero"/><path fill="#23202a" d="M 396.019531 320.550781 L 386.238281 320.550781 L 386.238281 295.824219 L 396.019531 295.824219 L 396.019531 320.550781 " fill-opacity="1" fill-rule="nonzero"/><path fill="#15181a" d="M 397.125 327.925781 L 385.152344 327.925781 L 385.152344 308.90625 L 397.125 296.890625 L 397.125 327.925781 " fill-opacity="1" fill-rule="nonzero"/><path fill="#e0788a" d="M 404.0625 185.828125 C 404.0625 185.828125 456.421875 227.710938 457.390625 248.539062 C 458.378906 269.363281 443.363281 256.476562 443.363281 256.476562 L 396.234375 214.941406 C 396.234375 214.941406 387.550781 190.570312 404.0625 185.828125 " fill-opacity="1" fill-rule="nonzero"/><path fill="#e0788a" d="M 410.652344 296.285156 C 410.652344 296.285156 441.753906 256.101562 442.304688 244.304688 C 442.863281 232.523438 455.820312 242.097656 455.820312 242.097656 C 455.820312 242.097656 464.082031 262.273438 455.4375 273.109375 C 446.800781 283.933594 413.019531 310.773438 413.019531 310.773438 C 413.019531 310.773438 411.171875 303.367188 410.652344 296.285156 " fill-opacity="1" fill-rule="nonzero"/><path fill="#e0788a" d="M 413.019531 310.773438 C 413.019531 310.773438 417.5625 298.132812 411.910156 294.628906 C 406.269531 291.136719 392.296875 283.085938 391.140625 285.597656 C 389.972656 288.101562 403.792969 295.5625 401.960938 297.703125 C 400.125 299.859375 394.347656 297.628906 382.972656 300.8125 C 382.972656 300.8125 379.902344 331.476562 413.019531 310.773438 " fill-opacity="1" fill-rule="nonzero"/><path fill="#1d2132" d="M 388.085938 205.792969 C 388.085938 205.792969 406.992188 230.496094 419.386719 238.042969 L 443.847656 210.035156 L 396.777344 176.644531 C 396.777344 176.644531 383.183594 190.789062 388.085938 205.792969 " fill-opacity="1" fill-rule="nonzero"/><path fill="#1d2132" d="M 362.945312 166.855469 L 358.199219 154.429688 L 331.570312 173.042969 L 330.585938 189.417969 L 362.945312 166.855469 " fill-opacity="1" fill-rule="nonzero"/><path fill="#1d2132" d="M 367.527344 166.855469 L 358.84375 153.445312 L 332.222656 172.074219 L 335.164062 189.417969 L 367.527344 166.855469 " fill-opacity="1" fill-rule="nonzero"/><path fill="#c15872" d="M 366.089844 135.617188 L 372.472656 172.410156 C 372.472656 172.410156 358.742188 192.519531 343.542969 189.082031 L 343.542969 155.453125 L 366.089844 135.617188 " fill-opacity="1" fill-rule="nonzero"/><path fill="#e0788a" d="M 346.191406 162 L 331.816406 159.160156 C 331.816406 159.160156 322.078125 122.226562 329.710938 105.738281 C 337.34375 89.246094 369.15625 87.546875 373.050781 109.816406 C 376.949219 132.085938 371.0625 141.925781 371.0625 141.925781 L 346.191406 162 " fill-opacity="1" fill-rule="nonzero"/><path fill="#151723" d="M 314.089844 403.609375 L 378.203125 490.910156 L 357.199219 497.53125 L 300.070312 446.765625 L 314.089844 403.609375 " fill-opacity="1" fill-rule="nonzero"/><path fill="#1d2132" d="M 378.363281 170.285156 L 373.617188 157.863281 L 346.980469 176.476562 L 346.007812 192.851562 L 378.363281 170.285156 " fill-opacity="1" fill-rule="nonzero"/><path fill="#1d2132" d="M 382.945312 170.285156 L 374.265625 156.882812 L 347.636719 175.5 L 350.578125 192.851562 L 382.945312 170.285156 " fill-opacity="1" fill-rule="nonzero"/><path fill="#df464a" d="M 378.667969 110.222656 C 378.515625 109.441406 378.117188 108.667969 377.347656 107.847656 C 375.046875 105.378906 371.136719 104.277344 368.296875 102.566406 C 367.359375 102.003906 366.417969 101.425781 365.453125 100.929688 C 362.050781 99.667969 359.0625 97.730469 356.695312 95.292969 C 348.027344 96.976562 339.320312 98.492188 330.53125 99.128906 C 328.671875 102.539062 325.949219 105.4375 322.675781 107.515625 C 323.605469 107.929688 324.933594 108.144531 326.785156 108.078125 C 326.785156 108.078125 320.96875 116.90625 327.679688 117.148438 C 334.394531 117.394531 336.964844 111.507812 341.683594 115.675781 C 346.410156 119.851562 347.394531 118.625 354.503906 112.621094 C 361.613281 106.605469 360.878906 114.945312 365.292969 120.828125 C 369.703125 126.714844 362.886719 144.464844 367.527344 144.789062 C 372.160156 145.109375 379.917969 142.25 378.363281 127.613281 C 377.914062 123.371094 377.246094 119.070312 378.128906 114.839844 C 378.503906 113.019531 378.949219 111.597656 378.667969 110.222656 " fill-opacity="1" fill-rule="nonzero"/><path fill="#1d2132" d="M 370.855469 95.050781 C 370.855469 95.050781 385.699219 89.164062 379.359375 83.609375 C 373.039062 78.046875 323.347656 56.132812 315.828125 78.699219 C 308.316406 101.261719 323.765625 98.292969 323.765625 98.292969 L 370.855469 95.050781 " fill-opacity="1" fill-rule="nonzero"/><path fill="#22273b" d="M 321.613281 93.746094 L 321.613281 104.773438 C 321.613281 104.773438 358.773438 98.398438 372.1875 104.773438 L 372.1875 93.746094 C 372.1875 93.746094 339.992188 78.292969 321.613281 93.746094 " fill-opacity="1" fill-rule="nonzero"/><path fill="#0e0d0c" d="M 360.125 101.953125 C 360.125 101.953125 344.636719 110.914062 323.40625 112.132812 C 313.363281 112.132812 301.597656 109.6875 323.40625 103.066406 C 345.203125 96.441406 360.125 101.953125 360.125 101.953125 " fill-opacity="1" fill-rule="nonzero"/><path fill="#1c1d1f" d="M 336.5 100.285156 C 332.507812 100.761719 328.121094 101.628906 323.40625 103.066406 C 301.597656 109.6875 313.363281 112.132812 323.40625 112.132812 C 324.734375 112.058594 326.050781 111.953125 327.347656 111.824219 C 328.902344 107.222656 332.164062 103.195312 336.5 100.285156 " fill-opacity="1" fill-rule="nonzero"/><path fill="#ced6d2" d="M 329.953125 87.398438 C 329.953125 87.398438 336.269531 81.640625 335.101562 70.789062 C 335.101562 70.789062 327.027344 67.9375 320.121094 75.710938 C 320.121094 75.710938 323.054688 87.066406 329.953125 87.398438 " fill-opacity="1" fill-rule="nonzero"/><path fill="#89abb2" d="M 335.1875 72.066406 C 335.164062 71.644531 335.148438 71.222656 335.101562 70.789062 C 335.101562 70.789062 327.027344 67.9375 320.121094 75.710938 C 320.121094 75.710938 321.316406 80.300781 323.945312 83.730469 C 327.257812 79.523438 330.972656 75.613281 335.1875 72.066406 " fill-opacity="1" fill-rule="nonzero"/><path fill="#6e878d" d="M 330.804688 77.863281 C 330.804688 80.199219 329.40625 82.078125 327.679688 82.078125 C 325.960938 82.078125 324.554688 80.199219 324.554688 77.863281 C 324.554688 75.523438 325.960938 73.632812 327.679688 73.632812 C 329.40625 73.632812 330.804688 75.523438 330.804688 77.863281 " fill-opacity="1" fill-rule="nonzero"/><path fill="#1a1d2c" d="M 365.839844 238.492188 L 387.128906 236.304688 L 383.839844 210.925781 L 364.859375 213.8125 L 365.839844 238.492188 " fill-opacity="1" fill-rule="nonzero"/><path fill="#13141f" d="M 378.054688 220.335938 C 377.621094 220.5 377.152344 220.679688 376.628906 220.859375 C 374.988281 221.460938 373.140625 221.515625 371.421875 221.59375 L 371.160156 221.589844 C 371.773438 226.988281 372.378906 232.382812 372.332031 237.820312 L 381.078125 236.929688 C 380.953125 236.304688 380.824219 235.675781 380.695312 235.0625 C 379.730469 230.175781 378.734375 225.273438 378.054688 220.335938 " fill-opacity="1" fill-rule="nonzero"/><path fill="#23283c" d="M 383.882812 209.359375 L 385.570312 221.335938 L 364.414062 224.707031 L 363.925781 213.0625 L 383.882812 209.359375 " fill-opacity="1" fill-rule="nonzero"/><path fill="#1a1d2c" d="M 325.796875 242.742188 L 344.121094 240.855469 L 341.289062 218.992188 L 324.9375 221.488281 L 325.796875 242.742188 " fill-opacity="1" fill-rule="nonzero"/><path fill="#13141f" d="M 336.304688 227.105469 C 335.9375 227.246094 335.535156 227.390625 335.085938 227.554688 C 333.675781 228.070312 332.074219 228.117188 330.59375 228.1875 L 330.363281 228.183594 C 330.894531 232.835938 331.421875 237.480469 331.382812 242.164062 L 338.910156 241.390625 C 338.796875 240.855469 338.695312 240.320312 338.582031 239.78125 C 337.746094 235.574219 336.894531 231.355469 336.304688 227.105469 " fill-opacity="1" fill-rule="nonzero"/><path fill="#23283c" d="M 341.324219 217.65625 L 342.777344 227.96875 L 324.5625 230.867188 L 324.140625 220.839844 L 341.324219 217.65625 " fill-opacity="1" fill-rule="nonzero"/><path fill="#ced6d2" d="M 374.128906 215 C 374.128906 215 382.425781 207.425781 380.898438 193.171875 C 380.898438 193.171875 370.292969 189.429688 361.226562 199.648438 C 361.226562 199.648438 365.078125 214.550781 374.128906 215 " fill-opacity="1" fill-rule="nonzero"/><path fill="#89abb2" d="M 381.003906 194.855469 C 380.976562 194.292969 380.957031 193.75 380.898438 193.171875 C 380.898438 193.171875 370.292969 189.429688 361.226562 199.648438 C 361.226562 199.648438 362.78125 205.675781 366.246094 210.167969 C 370.597656 204.652344 375.472656 199.53125 381.003906 194.855469 " fill-opacity="1" fill-rule="nonzero"/><path fill="#6e878d" d="M 375.257812 202.460938 C 375.257812 205.523438 373.429688 208.015625 371.160156 208.015625 C 368.886719 208.015625 367.050781 205.523438 367.050781 202.460938 C 367.050781 199.390625 368.886719 196.90625 371.160156 196.90625 C 373.429688 196.90625 375.257812 199.390625 375.257812 202.460938 " fill-opacity="1" fill-rule="nonzero"/><path fill="#211921" d="M 359.78125 123.0625 C 359.78125 123.0625 358.789062 122.648438 357.304688 122.140625 C 356.566406 121.882812 355.683594 121.648438 354.746094 121.40625 C 353.8125 121.160156 352.789062 120.984375 351.773438 120.898438 C 350.765625 120.789062 349.742188 120.808594 348.808594 120.957031 C 348.347656 121.085938 347.882812 121.089844 347.480469 121.25 C 347.074219 121.40625 346.652344 121.488281 346.328125 121.679688 C 345.992188 121.867188 345.675781 122.023438 345.390625 122.160156 C 345.113281 122.328125 344.914062 122.511719 344.722656 122.636719 C 344.34375 122.90625 344.121094 123.0625 344.121094 123.0625 C 344.121094 123.0625 344.292969 122.859375 344.59375 122.5 C 344.882812 122.125 345.371094 121.652344 346.0625 121.214844 C 346.394531 120.957031 346.828125 120.816406 347.238281 120.597656 C 347.664062 120.367188 348.15625 120.28125 348.65625 120.136719 C 349.667969 119.933594 350.769531 119.871094 351.863281 119.949219 C 352.941406 120.074219 354.007812 120.304688 354.976562 120.609375 C 355.9375 120.890625 356.792969 121.316406 357.507812 121.652344 C 358.945312 122.382812 359.78125 123.0625 359.78125 123.0625 " fill-opacity="1" fill-rule="nonzero"/><path fill="#211921" d="M 348.269531 126.527344 C 348.269531 127.917969 349.085938 129.039062 350.105469 129.039062 C 351.117188 129.039062 351.949219 127.917969 351.949219 126.527344 C 351.949219 125.152344 351.117188 124.027344 350.105469 124.027344 C 349.085938 124.027344 348.269531 125.152344 348.269531 126.527344 " fill-opacity="1" fill-rule="nonzero"/><path fill="#211921" d="M 325.640625 122.289062 C 325.640625 122.289062 326.144531 121.851562 327.042969 121.394531 C 327.9375 120.960938 329.273438 120.558594 330.648438 120.628906 C 331.328125 120.679688 332.011719 120.832031 332.597656 121.074219 C 333.199219 121.304688 333.703125 121.648438 334.089844 121.980469 C 334.871094 122.621094 335.1875 123.226562 335.207031 123.199219 C 335.207031 123.199219 335.085938 123.097656 334.84375 122.933594 C 334.625 122.75 334.28125 122.53125 333.867188 122.300781 C 333.472656 122.03125 332.941406 121.839844 332.394531 121.648438 C 331.84375 121.449219 331.226562 121.351562 330.605469 121.332031 C 329.363281 121.21875 328.109375 121.523438 327.183594 121.765625 C 326.25 122.023438 325.640625 122.289062 325.640625 122.289062 " fill-opacity="1" fill-rule="nonzero"/><path fill="#211921" d="M 332.175781 125.738281 C 332.175781 126.746094 331.582031 127.566406 330.835938 127.566406 C 330.085938 127.566406 329.492188 126.746094 329.492188 125.738281 C 329.492188 124.726562 330.085938 123.898438 330.835938 123.898438 C 331.582031 123.898438 332.175781 124.726562 332.175781 125.738281 " fill-opacity="1" fill-rule="nonzero"/><path fill="#ffffff" d="M 350.496094 142.324219 C 350.496094 142.324219 341.363281 143.621094 334.167969 142.007812 L 334.816406 145.828125 C 334.816406 145.828125 345.738281 148.15625 350.496094 142.324219 " fill-opacity="1" fill-rule="nonzero"/><path fill="#df6886" d="M 337.960938 134.488281 C 337.960938 134.488281 337.824219 134.59375 337.511719 134.691406 C 337.363281 134.742188 337.167969 134.769531 336.9375 134.792969 C 336.71875 134.792969 336.445312 134.808594 336.167969 134.71875 L 335.71875 134.566406 L 335.289062 134.304688 L 334.878906 133.945312 L 334.699219 133.742188 L 334.597656 133.628906 L 334.496094 133.464844 L 334.382812 133.265625 L 334.25 132.902344 C 334.152344 132.632812 334.164062 132.433594 334.152344 132.183594 C 334.179688 131.734375 334.292969 131.265625 334.523438 130.882812 C 334.757812 130.496094 335.074219 130.175781 335.421875 129.933594 C 335.769531 129.691406 336.167969 129.546875 336.546875 129.472656 C 336.910156 129.382812 337.269531 129.398438 337.601562 129.425781 C 337.925781 129.457031 338.21875 129.539062 338.476562 129.640625 C 338.734375 129.714844 338.941406 129.847656 339.128906 129.949219 L 339.589844 130.277344 C 339.820312 130.476562 339.9375 130.59375 339.9375 130.59375 L 339.890625 130.683594 C 339.890625 130.683594 339.746094 130.625 339.488281 130.523438 L 339.011719 130.367188 C 338.824219 130.320312 338.613281 130.246094 338.375 130.21875 C 338.144531 130.175781 337.886719 130.164062 337.617188 130.164062 C 337.34375 130.179688 337.0625 130.207031 336.78125 130.304688 C 336.5 130.375 336.230469 130.511719 335.972656 130.695312 C 335.738281 130.871094 335.523438 131.113281 335.367188 131.375 C 335.203125 131.636719 335.128906 131.9375 335.089844 132.242188 C 335.089844 132.542969 335.117188 132.820312 335.277344 133.09375 C 335.421875 133.324219 335.597656 133.578125 335.792969 133.753906 L 336.085938 134 L 336.414062 134.171875 L 337.023438 134.375 L 337.511719 134.421875 C 337.785156 134.433594 337.941406 134.394531 337.941406 134.394531 L 337.960938 134.488281 " fill-opacity="1" fill-rule="nonzero"/><path fill="#2c2e33" d="M 332.597656 329.859375 L 338.652344 332.152344 L 345.722656 299.128906 L 339.273438 297.703125 L 332.597656 329.859375 " fill-opacity="1" fill-rule="nonzero"/><path fill="#161717" d="M 332.597656 329.859375 L 329.171875 325.445312 L 336.398438 295.53125 L 339.273438 297.703125 L 332.597656 329.859375 " fill-opacity="1" fill-rule="nonzero"/><path fill="#161717" d="M 336.398438 295.53125 L 342.082031 296.511719 L 345.722656 299.285156 L 339.273438 297.703125 L 336.398438 295.53125 " fill-opacity="1" fill-rule="nonzero"/><path fill="#161717" d="M 344.160156 277.933594 L 340.105469 296.773438 C 339.980469 297.296875 340.324219 297.824219 340.859375 297.941406 C 341.378906 298.054688 341.90625 297.710938 342.015625 297.191406 L 346.082031 278.351562 C 346.191406 277.816406 345.851562 277.292969 345.328125 277.183594 C 344.792969 277.070312 344.277344 277.402344 344.160156 277.933594 " fill-opacity="1" fill-rule="nonzero"/><path fill="#181a28" d="M 381.003906 177.3125 C 381.003906 177.3125 400.601562 183.367188 403.214844 189.417969 L 409.917969 184.671875 C 409.917969 184.671875 398.652344 168.945312 385.570312 169.867188 L 381.003906 177.3125 " fill-opacity="1" fill-rule="nonzero"/><path fill="#ef4847" d="M 539.792969 172.953125 L 538.160156 300.167969 C 538.160156 300.167969 578.300781 309.53125 616.585938 291.796875 L 596.292969 155.6875 C 596.292969 155.6875 557.847656 151.023438 539.792969 172.953125 " fill-opacity="1" fill-rule="nonzero"/><path fill="#e0788a" d="M 617.914062 164.5625 C 617.914062 164.5625 630.777344 175.484375 641.003906 188.855469 C 647.539062 197.421875 655.644531 207.832031 658.082031 212.3125 C 664.136719 223.5 643.761719 221.199219 639.117188 217.707031 C 633.390625 213.394531 627.605469 208.257812 622.226562 203.484375 C 615.082031 197.152344 594.730469 183.734375 594.328125 172.953125 C 593.941406 162.757812 603.816406 153.777344 617.914062 164.5625 " fill-opacity="1" fill-rule="nonzero"/><path fill="#e0788a" d="M 641.347656 219.019531 C 641.347656 219.019531 685.152344 241.714844 711.445312 240.40625 C 711.445312 240.40625 714.113281 228.90625 706.789062 227.734375 C 704.425781 227.351562 696.476562 225.09375 687.074219 221 C 667.359375 212.414062 668.4375 204.320312 641.347656 219.019531 " fill-opacity="1" fill-rule="nonzero"/><path fill="#e0788a" d="M 710.25 240.550781 C 710.25 240.550781 702.835938 232.046875 706.183594 227.582031 C 709.542969 223.109375 718.011719 212.542969 719.695312 214.152344 C 721.367188 215.761719 712.820312 225.828125 714.921875 226.945312 C 717.003906 228.070312 720.851562 224.558594 730.730469 223.570312 C 730.730469 223.570312 742.488281 246.640625 710.25 240.550781 " fill-opacity="1" fill-rule="nonzero"/><path fill="#162236" d="M 613.746094 204.636719 C 613.746094 204.636719 666.429688 243.074219 710.355469 243.847656 L 702.449219 224.234375 C 702.449219 224.234375 687.519531 218.515625 681.816406 213.988281 C 676.097656 209.460938 672.144531 212.101562 666.429688 209.023438 C 660.71875 205.949219 660.289062 209.023438 655.019531 198.921875 C 649.742188 188.8125 628.65625 166.796875 611.964844 165.5 C 595.277344 164.207031 613.746094 204.636719 613.746094 204.636719 " fill-opacity="1" fill-rule="nonzero"/><path fill="#df464a" d="M 607.355469 82.480469 C 607.355469 82.480469 628.800781 83.648438 629.246094 99.171875 C 629.683594 114.699219 621.777344 119.675781 624.996094 125.832031 C 628.222656 131.984375 623.332031 144 618.300781 148.675781 C 613.28125 153.363281 609.472656 164.714844 609.179688 170.316406 C 608.882812 175.925781 577.554688 183.246094 570.820312 158.34375 C 564.082031 133.449219 589.363281 75.25 607.355469 82.480469 " fill-opacity="1" fill-rule="nonzero"/><path fill="#1b1c28" d="M 615.070312 511.34375 C 615.070312 511.34375 607.910156 528.785156 611.679688 530.203125 C 615.449219 531.613281 656.929688 543.390625 668.246094 530.203125 C 672.953125 522.179688 644.980469 522.179688 639.644531 516.523438 C 634.300781 510.867188 631.164062 505.210938 631.164062 505.210938 L 615.070312 511.34375 " fill-opacity="1" fill-rule="nonzero"/><path fill="#1b1c28" d="M 541.550781 518.574219 C 541.550781 518.574219 534.382812 536.015625 538.148438 537.429688 C 541.929688 538.839844 583.40625 550.632812 594.714844 537.429688 C 599.433594 529.410156 571.457031 529.410156 566.113281 523.753906 C 560.78125 518.097656 557.636719 512.441406 557.636719 512.441406 L 541.550781 518.574219 " fill-opacity="1" fill-rule="nonzero"/><path fill="#303a47" d="M 595.753906 324.601562 C 595.753906 324.601562 582.558594 392.492188 579.414062 400.671875 C 576.269531 408.835938 560.621094 513.378906 560.621094 513.378906 C 560.621094 513.378906 550.914062 523.128906 541.78125 519.984375 C 532.652344 516.839844 543.667969 415.628906 543.667969 415.628906 L 556.625 284.207031 C 556.625 284.207031 591.46875 263.820312 617.046875 276.230469 C 617.046875 276.230469 638.234375 370.371094 639.488281 387.339844 C 640.746094 404.316406 633.832031 507.40625 633.832031 507.40625 C 633.832031 507.40625 619.378906 514.328125 615.605469 512.441406 C 611.835938 510.554688 609.949219 389.226562 609.949219 389.226562 L 595.753906 324.601562 " fill-opacity="1" fill-rule="nonzero"/><path fill="#162236" d="M 623.535156 169.035156 C 623.535156 169.035156 632.902344 211.476562 627.632812 220.722656 C 622.355469 229.964844 616.507812 292.652344 616.507812 292.652344 C 616.507812 292.652344 576.378906 305.542969 562.324219 292.652344 C 548.269531 279.765625 554.535156 173.066406 554.535156 173.066406 C 554.535156 173.066406 593.074219 136.8125 623.535156 169.035156 " fill-opacity="1" fill-rule="nonzero"/><path fill="#e0788a" d="M 570.757812 192.777344 C 570.757812 192.777344 561.914062 208.246094 549.640625 221.640625 C 541.78125 230.195312 532.265625 240.765625 527.894531 244.253906 C 517 252.933594 514.316406 231.925781 517.019531 226.4375 C 520.347656 219.671875 524.578125 212.675781 528.503906 206.152344 C 533.71875 197.507812 543.4375 173.921875 555.34375 171.011719 C 566.605469 168.253906 579.15625 176.101562 570.757812 192.777344 " fill-opacity="1" fill-rule="nonzero"/><path fill="#e0788a" d="M 516.125 228.980469 C 516.125 228.980469 502.121094 278.304688 510.335938 304.4375 C 510.335938 304.4375 523.835938 304.449219 523.25 296.8125 C 523.070312 294.351562 523.539062 285.828125 525.683594 275.421875 C 530.179688 253.617188 539.464844 252.8125 516.125 228.980469 " fill-opacity="1" fill-rule="nonzero"/><path fill="#e0788a" d="M 509.863281 303.269531 C 509.863281 303.269531 517.433594 293.832031 523.273438 296.167969 C 529.113281 298.503906 543.0625 304.578125 541.710938 306.632812 C 540.351562 308.695312 526.941406 302.441406 526.222656 304.796875 C 525.515625 307.167969 530.417969 310.210938 534.0625 319.917969 C 534.0625 319.917969 511.375 337.101562 509.863281 303.269531 " fill-opacity="1" fill-rule="nonzero"/><path fill="#c15872" d="M 583.410156 129.050781 L 577.699219 162.007812 C 577.699219 162.007812 590.003906 180.027344 603.617188 176.949219 L 603.617188 146.8125 L 583.410156 129.050781 " fill-opacity="1" fill-rule="nonzero"/><path fill="#e0788a" d="M 573.527344 129.050781 C 573.527344 129.050781 569.574219 119.382812 577.914062 100.488281 C 586.265625 81.597656 617.886719 88.625 622.28125 104.441406 C 626.679688 120.265625 609.546875 151.023438 609.546875 151.023438 C 609.546875 151.023438 590.4375 160.90625 573.527344 129.050781 " fill-opacity="1" fill-rule="nonzero"/><path fill="#df464a" d="M 577.699219 148.976562 C 577.699219 148.976562 583.410156 143.988281 582.238281 129.050781 C 581.070312 114.109375 598.191406 117.917969 594.316406 105.90625 C 590.4375 93.902344 610.652344 101.8125 613.570312 91.855469 C 616.507812 81.890625 581.25 66.066406 572.371094 94.484375 C 568.765625 105.328125 555.292969 111.105469 559.683594 120.074219 C 564.082031 129.050781 565.265625 158.929688 558.816406 164.5 C 552.367188 170.054688 580.191406 171.527344 577.699219 148.976562 " fill-opacity="1" fill-rule="nonzero"/><path fill="#162236" d="M 580.09375 180.488281 C 580.09375 180.488281 555.496094 225.816406 536.878906 238.511719 C 536.878906 238.511719 538.582031 245.457031 534.363281 252.652344 C 529.867188 260.320312 528.78125 269.207031 526.953125 277.597656 C 526.148438 281.265625 524.90625 284.84375 524.199219 288.523438 C 523.851562 290.296875 524.386719 294.714844 523.273438 296.167969 C 523.273438 296.167969 513.296875 309.164062 507.753906 304.4375 C 502.203125 299.707031 506.730469 241.140625 512.257812 227.582031 C 517.78125 214.035156 546.59375 159.148438 567.929688 166.113281 C 589.261719 173.066406 580.09375 180.488281 580.09375 180.488281 " fill-opacity="1" fill-rule="nonzero"/><path fill="#f16a48" d="M 536.761719 300.527344 C 536.761719 300.527344 584.292969 311.175781 588.902344 298.105469 C 588.902344 298.105469 589.453125 167.15625 574.578125 159.671875 C 559.683594 152.195312 539.792969 172.953125 539.792969 172.953125 C 539.792969 172.953125 556.320312 227.90625 538.851562 246.332031 L 536.761719 300.527344 " fill-opacity="1" fill-rule="nonzero"/><path fill="#f6ab4b" d="M 546.65625 218.949219 C 546.746094 222.644531 546.601562 226.25 546.09375 229.632812 C 557.738281 223.277344 573.308594 218.847656 586.410156 216.589844 C 586.164062 213.011719 585.886719 209.472656 585.585938 206.023438 C 573.5625 210.292969 558.742188 214.898438 546.65625 218.949219 " fill-opacity="1" fill-rule="nonzero"/><path fill="#f16a48" d="M 647.25 289.746094 C 647.25 289.746094 602.660156 299.746094 598.324219 287.484375 C 598.324219 287.484375 597.816406 164.613281 611.769531 157.589844 L 632.609375 171.820312 C 632.609375 171.820312 619.421875 238.050781 647.25 289.746094 " fill-opacity="1" fill-rule="nonzero"/><path fill="#f6ab4b" d="M 629.554688 204.027344 C 628.378906 204.0625 627.203125 204.078125 626.027344 204.078125 C 617.710938 204.078125 609.460938 203.199219 601.410156 201.507812 C 601.03125 205.878906 600.703125 210.371094 600.402344 214.9375 C 604.09375 214.582031 607.800781 214.402344 611.523438 214.402344 C 617.59375 214.402344 623.625 214.871094 629.578125 215.78125 C 629.453125 211.667969 629.464844 207.730469 629.554688 204.027344 " fill-opacity="1" fill-rule="nonzero"/><path fill="#211921" d="M 590.566406 115.882812 C 590.566406 115.882812 591.3125 115.277344 592.59375 114.625 C 593.242188 114.324219 593.996094 113.957031 594.871094 113.6875 C 595.738281 113.425781 596.679688 113.222656 597.65625 113.109375 C 598.628906 113.023438 599.625 113.09375 600.527344 113.273438 C 600.976562 113.402344 601.421875 113.472656 601.796875 113.675781 C 602.171875 113.882812 602.550781 114.007812 602.851562 114.234375 C 603.46875 114.636719 603.902344 115.058594 604.167969 115.390625 C 604.4375 115.703125 604.585938 115.882812 604.585938 115.882812 C 604.585938 115.882812 604.394531 115.75 604.058594 115.507812 C 603.746094 115.234375 603.226562 114.96875 602.609375 114.652344 C 602.320312 114.480469 601.941406 114.40625 601.582031 114.265625 C 601.222656 114.121094 600.792969 114.121094 600.386719 114.003906 C 599.550781 113.875 598.640625 113.855469 597.730469 113.964844 C 596.820312 114.03125 595.910156 114.1875 595.074219 114.40625 C 594.226562 114.621094 593.433594 114.839844 592.773438 115.070312 C 591.445312 115.519531 590.566406 115.882812 590.566406 115.882812 " fill-opacity="1" fill-rule="nonzero"/><path fill="#211921" d="M 600.875 119.007812 C 600.875 120.25 600.140625 121.25 599.230469 121.25 C 598.320312 121.25 597.574219 120.25 597.574219 119.007812 C 597.574219 117.765625 598.320312 116.75 599.230469 116.75 C 600.140625 116.75 600.875 117.765625 600.875 119.007812 " fill-opacity="1" fill-rule="nonzero"/><path fill="#211921" d="M 621.960938 116.3125 C 621.960938 116.3125 621.308594 116.035156 620.316406 115.75 C 619.328125 115.480469 617.984375 115.160156 616.667969 115.277344 C 616.003906 115.300781 615.339844 115.40625 614.761719 115.621094 C 614.171875 115.824219 613.613281 116.023438 613.191406 116.3125 C 612.296875 116.804688 611.78125 117.304688 611.753906 117.277344 C 611.78125 117.304688 612.113281 116.648438 612.949219 115.96875 C 613.351562 115.621094 613.898438 115.261719 614.539062 115.011719 C 615.171875 114.753906 615.890625 114.59375 616.628906 114.542969 C 618.097656 114.464844 619.511719 114.894531 620.472656 115.355469 C 621.429688 115.824219 621.960938 116.3125 621.960938 116.3125 " fill-opacity="1" fill-rule="nonzero"/><path fill="#211921" d="M 614.992188 119.980469 C 614.992188 121.0625 615.632812 121.941406 616.425781 121.941406 C 617.214844 121.941406 617.855469 121.0625 617.855469 119.980469 C 617.855469 118.90625 617.214844 118.019531 616.425781 118.019531 C 615.632812 118.019531 614.992188 118.90625 614.992188 119.980469 " fill-opacity="1" fill-rule="nonzero"/><path fill="#ffffff" d="M 596.5625 133.753906 C 596.5625 133.753906 604.46875 136.167969 611.054688 135.730469 L 609.960938 139.03125 C 609.960938 139.03125 599.964844 139.570312 596.5625 133.753906 " fill-opacity="1" fill-rule="nonzero"/><path fill="#c75373" d="M 609.289062 130.355469 C 609.289062 130.355469 609.527344 129.804688 609.847656 129.078125 C 610.035156 128.730469 610.164062 128.277344 610.28125 127.886719 C 610.410156 127.46875 610.335938 127.21875 610.207031 127.148438 L 610.199219 127.128906 L 610.199219 127.117188 C 610.246094 127.164062 610.078125 127.027344 610.308594 127.207031 L 610.292969 127.191406 L 610.207031 127.128906 L 610.046875 127.007812 L 609.742188 126.828125 C 609.589844 126.828125 609.535156 126.726562 609.289062 126.726562 C 608.882812 126.65625 608.421875 126.597656 608.03125 126.625 C 607.191406 126.628906 606.644531 126.640625 606.644531 126.640625 L 606.601562 126.558594 C 606.601562 126.558594 607.101562 126.316406 607.917969 126.113281 C 608.316406 126.023438 608.800781 125.933594 609.332031 125.960938 C 609.878906 125.960938 610.425781 126.164062 610.855469 126.558594 C 611.285156 127.015625 611.203125 127.695312 611 128.15625 C 610.796875 128.652344 610.523438 129.054688 610.265625 129.386719 C 609.757812 130.050781 609.34375 130.421875 609.34375 130.421875 L 609.289062 130.355469 " fill-opacity="1" fill-rule="nonzero"/><path fill="#fbc120" d="M 634.660156 100.050781 C 628.8125 116.164062 561.988281 103.457031 561.988281 103.457031 L 562.828125 97.195312 C 564.425781 97.132812 565.363281 95.566406 565.875 94.140625 C 566.304688 92.953125 566.457031 91.855469 566.457031 91.855469 C 566.457031 91.855469 566.402344 90.847656 566.535156 89.21875 C 567.082031 82.277344 570.949219 63.851562 596.5625 63.144531 C 628.15625 62.261719 629.566406 89.136719 629.566406 89.136719 L 633.183594 92.175781 L 633.492188 92.433594 L 634.660156 100.050781 " fill-opacity="1" fill-rule="nonzero"/><path fill="#fdd82d" d="M 607.957031 99.242188 C 607.957031 99.242188 625.113281 99.878906 627.761719 96.101562 C 627.761719 96.101562 627.578125 69.25 611.753906 63.117188 C 595.929688 56.988281 587.492188 64.285156 587.492188 64.285156 C 587.492188 64.285156 611.503906 74.414062 607.957031 99.242188 " fill-opacity="1" fill-rule="nonzero"/><path fill="#f89e23" d="M 607.957031 99.242188 L 603.808594 99.242188 C 603.808594 99.242188 606.660156 75.839844 587.492188 64.285156 C 587.492188 64.285156 610.097656 67.082031 607.957031 99.242188 " fill-opacity="1" fill-rule="nonzero"/><path fill="#f89e23" d="M 600.324219 100.269531 C 590.539062 103.230469 562.828125 97.195312 562.828125 97.195312 C 564.425781 97.132812 565.363281 95.566406 565.875 94.140625 C 578.90625 97.453125 600.324219 100.269531 600.324219 100.269531 " fill-opacity="1" fill-rule="nonzero"/><path fill="#f89e23" d="M 633.183594 92.175781 C 630.835938 95.292969 626.882812 96.890625 626.882812 96.890625 C 629.941406 93.414062 629.566406 89.136719 629.566406 89.136719 L 633.183594 92.175781 " fill-opacity="1" fill-rule="nonzero"/><path fill="#211921" d="M 616.96875 118.691406 C 616.976562 118.691406 617.351562 118.472656 617.738281 118.121094 C 618.125 117.78125 618.542969 117.320312 618.546875 116.75 L 618.113281 116.75 C 618.125 117.0625 617.804688 117.484375 617.453125 117.800781 C 617.097656 118.113281 616.746094 118.316406 616.746094 118.316406 L 616.96875 118.691406 " fill-opacity="1" fill-rule="nonzero"/><path fill="#211921" d="M 616.238281 118.855469 C 616.238281 118.839844 616.988281 117.84375 617.003906 116.929688 L 616.902344 116.441406 L 616.507812 116.621094 L 616.566406 116.929688 C 616.566406 117.265625 616.398438 117.699219 616.222656 118.03125 C 616.054688 118.363281 615.878906 118.601562 615.878906 118.601562 L 616.238281 118.855469 " fill-opacity="1" fill-rule="nonzero"/><path fill="#211921" d="M 617.65625 119.199219 C 617.664062 119.179688 619.195312 118.804688 619.652344 117.625 L 619.25 117.480469 C 619.082031 117.910156 618.671875 118.242188 618.273438 118.460938 L 617.753906 118.703125 L 617.535156 118.765625 L 617.65625 119.199219 " fill-opacity="1" fill-rule="nonzero"/><path fill="#211921" d="M 599.78125 117.585938 C 599.792969 117.582031 600.167969 117.355469 600.554688 117.007812 C 600.929688 116.671875 601.351562 116.210938 601.363281 115.636719 L 600.929688 115.636719 C 600.9375 115.960938 600.617188 116.371094 600.257812 116.6875 C 599.910156 117.003906 599.5625 117.203125 599.5625 117.203125 L 599.78125 117.585938 " fill-opacity="1" fill-rule="nonzero"/><path fill="#211921" d="M 599.054688 117.742188 C 599.054688 117.726562 599.796875 116.730469 599.820312 115.8125 L 599.71875 115.328125 L 599.320312 115.503906 L 599.375 115.8125 C 599.375 116.152344 599.214844 116.574219 599.035156 116.917969 C 598.871094 117.25 598.695312 117.484375 598.695312 117.484375 L 599.054688 117.742188 " fill-opacity="1" fill-rule="nonzero"/><path fill="#211921" d="M 600.472656 118.085938 C 600.480469 118.070312 602.003906 117.6875 602.464844 116.519531 L 602.058594 116.367188 C 601.898438 116.800781 601.480469 117.132812 601.089844 117.351562 L 600.570312 117.585938 L 600.351562 117.664062 L 600.472656 118.085938 " fill-opacity="1" fill-rule="nonzero"/><path fill="#1f222c" d="M 132.464844 288.664062 L 145.449219 283.859375 L 142.601562 233.792969 L 132.898438 228.648438 C 132.898438 228.648438 127.34375 252.925781 132.464844 288.664062 " fill-opacity="1" fill-rule="nonzero"/><path fill="#1b1c28" d="M 47.765625 506.519531 C 47.765625 506.519531 34.21875 528.21875 37.511719 530.230469 C 40.800781 532.246094 77.683594 550.875 90.722656 540.503906 C 96.621094 533.820312 70.292969 528.742188 66.300781 522.4375 C 62.304688 516.148438 60.371094 510.261719 60.371094 510.261719 L 47.765625 506.519531 " fill-opacity="1" fill-rule="nonzero"/><path fill="#1b1c28" d="M 130.53125 496.769531 C 130.53125 496.769531 123.230469 516.773438 126.257812 517.851562 C 129.28125 518.929688 162.535156 527.757812 171.378906 517.070312 C 175.03125 510.609375 152.714844 510.996094 148.382812 506.554688 C 144.042969 502.109375 141.460938 497.640625 141.460938 497.640625 L 130.53125 496.769531 " fill-opacity="1" fill-rule="nonzero"/><path fill="#274458" d="M 128.832031 266.660156 C 128.832031 266.660156 145.027344 358.394531 140.425781 378.4375 C 135.839844 398.472656 115.15625 403.84375 115.15625 403.84375 L 88.5 268.167969 L 128.832031 266.660156 " fill-opacity="1" fill-rule="nonzero"/><path fill="#274458" d="M 140.425781 378.4375 L 147.316406 501.347656 L 129.257812 498.652344 L 113.714844 386.425781 L 140.425781 378.4375 " fill-opacity="1" fill-rule="nonzero"/><path fill="#335a72" d="M 111.679688 286.96875 C 111.679688 286.96875 100.945312 379.503906 90.808594 397.390625 C 80.667969 415.28125 59.320312 414.492188 59.320312 414.492188 L 72.617188 276.863281 L 111.679688 286.96875 " fill-opacity="1" fill-rule="nonzero"/><path fill="#335a72" d="M 107.40625 319.640625 C 107.40625 319.640625 128.191406 282.691406 132.898438 279.777344 C 132.898438 279.777344 98.960938 266.585938 107.40625 319.640625 " fill-opacity="1" fill-rule="nonzero"/><path fill="#df6886" d="M 120.648438 153.417969 C 120.648438 153.417969 134.671875 158.542969 147.25 166.515625 C 155.296875 171.617188 165.207031 177.773438 168.605469 180.757812 C 177.046875 188.1875 165.523438 196.996094 160.59375 195.519531 C 154.515625 193.6875 142.074219 186.71875 136.132812 184.410156 C 128.269531 181.335938 107.265625 176.421875 103.632812 167.601562 C 100.195312 159.261719 105.636719 148.777344 120.648438 153.417969 " fill-opacity="1" fill-rule="nonzero"/><path fill="#df6886" d="M 166.117188 195.683594 C 166.117188 195.683594 198.363281 171.445312 207.382812 149.96875 C 207.382812 149.96875 199.226562 143.449219 195.492188 148.835938 C 194.285156 150.574219 189.441406 156.058594 182.570312 162 C 170.542969 172.40625 155.050781 176.390625 154.128906 191.710938 C 153.953125 194.710938 162.871094 197.542969 166.117188 195.683594 " fill-opacity="1" fill-rule="nonzero"/><path fill="#df6886" d="M 207.039062 150.980469 C 207.039062 150.980469 197.414062 153.636719 195.132812 149.261719 C 192.859375 144.867188 187.675781 134.074219 189.597656 133.347656 C 191.515625 132.617188 196.273438 143.289062 197.976562 142.050781 C 199.664062 140.808594 198.339844 136.398438 201.332031 128.140625 C 201.332031 128.140625 224.238281 127.578125 207.039062 150.980469 " fill-opacity="1" fill-rule="nonzero"/><path fill="#191a22" d="M 201.3125 119.820312 C 201.3125 119.820312 214.492188 162.292969 195.773438 182.507812 C 177.0625 202.730469 178.828125 171.085938 184.347656 156.59375 C 189.867188 142.082031 191.996094 123.730469 191.996094 123.730469 L 191.257812 119.125 C 189.457031 129.554688 187.273438 140.171875 183.695312 150.132812 C 181 157.648438 177.078125 163.867188 176.394531 172.015625 C 175.882812 177.964844 175.507812 185.578125 178.894531 190.828125 C 180.253906 192.933594 182.988281 195.203125 185.53125 195.683594 C 198.636719 198.121094 220.59375 176.78125 208.9375 120.871094 L 201.3125 119.820312 " fill-opacity="1" fill-rule="nonzero"/><path fill="#171e28" d="M 203.5625 121.230469 L 187.199219 119.011719 L 184.1875 141.320312 L 200.558594 143.527344 C 202.949219 143.851562 205.175781 142.148438 205.496094 139.746094 L 207.324219 126.179688 C 207.65625 123.78125 205.964844 121.550781 203.5625 121.230469 " fill-opacity="1" fill-rule="nonzero"/><path fill="#2d3b50" d="M 201.148438 139.160156 C 200.824219 141.558594 198.59375 143.261719 196.191406 142.941406 L 177.769531 140.453125 C 175.371094 140.121094 173.671875 137.898438 173.992188 135.488281 L 175.820312 121.929688 C 176.140625 119.53125 178.378906 117.828125 180.78125 118.148438 L 199.199219 120.640625 C 201.597656 120.960938 203.308594 123.191406 202.980469 125.589844 L 201.148438 139.160156 " fill-opacity="1" fill-rule="nonzero"/><path fill="#171e28" d="M 194.835938 131.40625 C 195.4375 127 193.015625 123.035156 189.433594 122.546875 L 188.917969 122.511719 L 178.277344 121.074219 L 176.125 137 L 187.632812 138.550781 L 187.636719 138.53125 C 191.085938 138.761719 194.269531 135.664062 194.835938 131.40625 " fill-opacity="1" fill-rule="nonzero"/><path fill="#3d5068" d="M 184.257812 129.972656 C 183.667969 134.375 180.273438 137.5625 176.699219 137.070312 C 173.109375 136.59375 170.6875 132.628906 171.277344 128.21875 C 171.875 123.816406 175.261719 120.628906 178.847656 121.121094 C 182.429688 121.609375 184.851562 125.5625 184.257812 129.972656 " fill-opacity="1" fill-rule="nonzero"/><path fill="#7bd4f1" d="M 183.269531 129.84375 C 182.761719 133.578125 179.894531 136.269531 176.859375 135.863281 C 173.816406 135.453125 171.765625 132.085938 172.261719 128.347656 C 172.765625 124.617188 175.648438 121.921875 178.679688 122.332031 C 181.722656 122.738281 183.773438 126.109375 183.269531 129.84375 " fill-opacity="1" fill-rule="nonzero"/><path fill="#61ccf0" d="M 179.386719 122.488281 C 182.832031 125.097656 181.074219 133.492188 176.125 132.820312 C 173.328125 132.445312 172.289062 129.546875 172.632812 126.816406 C 172.464844 127.304688 172.335938 127.816406 172.261719 128.347656 C 171.765625 132.085938 173.816406 135.453125 176.859375 135.863281 C 179.894531 136.269531 182.761719 133.578125 183.269531 129.84375 C 183.730469 126.398438 182.027344 123.292969 179.386719 122.488281 " fill-opacity="1" fill-rule="nonzero"/><path fill="#ffffff" d="M 173.523438 127.511719 C 173.523438 127.511719 173.65625 127.046875 174.003906 126.394531 C 174.339844 125.746094 174.96875 124.96875 175.765625 124.339844 C 176.179688 124.058594 176.640625 123.828125 177.101562 123.675781 C 177.558594 123.527344 178.019531 123.523438 178.398438 123.550781 C 179.15625 123.628906 179.5625 123.960938 179.574219 123.917969 C 179.574219 123.917969 179.445312 123.917969 179.234375 123.898438 C 179.027344 123.871094 178.738281 123.90625 178.398438 123.933594 C 177.726562 124.027344 176.878906 124.320312 176.171875 124.898438 C 175.429688 125.417969 174.792969 126.097656 174.3125 126.625 C 173.835938 127.136719 173.523438 127.511719 173.523438 127.511719 " fill-opacity="1" fill-rule="nonzero"/><path fill="#35465f" d="M 191.257812 120.152344 L 181.53125 118.839844 L 182.28125 113.351562 L 191.996094 114.664062 L 191.257812 120.152344 " fill-opacity="1" fill-rule="nonzero"/><path fill="#171e28" d="M 191.257812 120.152344 L 203.488281 121.800781 C 203.488281 121.800781 202.113281 116.035156 191.996094 114.664062 L 191.257812 120.152344 " fill-opacity="1" fill-rule="nonzero"/><path fill="#171e28" d="M 199.835938 132.945312 C 199.96875 131.925781 199.234375 130.988281 198.195312 130.855469 L 198.046875 130.835938 L 197.441406 130.753906 L 196.941406 134.421875 L 197.800781 134.535156 C 198.800781 134.605469 199.703125 133.914062 199.835938 132.945312 " fill-opacity="1" fill-rule="nonzero"/><path fill="#3d5068" d="M 199.246094 132.859375 C 199.105469 133.871094 198.148438 134.578125 197.109375 134.4375 C 196.070312 134.304688 195.335938 133.363281 195.472656 132.355469 C 195.609375 131.34375 196.566406 130.628906 197.605469 130.769531 C 198.644531 130.910156 199.378906 131.847656 199.246094 132.859375 " fill-opacity="1" fill-rule="nonzero"/><path fill="#211921" d="M 122.761719 88.28125 C 122.761719 88.28125 137.78125 90.964844 133.835938 109.457031 C 129.886719 127.9375 137.988281 133.539062 144.785156 139.28125 C 151.574219 145.019531 140.113281 161.890625 120.4375 159.917969 C 100.765625 157.941406 94.734375 153.0625 95.453125 144.660156 C 96.171875 136.261719 96.132812 85.871094 122.761719 88.28125 " fill-opacity="1" fill-rule="nonzero"/><path fill="#cf697e" d="M 96.351562 147.898438 C 92.941406 157.152344 87 165.328125 81.566406 173.503906 C 76.542969 181.039062 71.433594 188.480469 66.03125 195.726562 C 73.113281 208.421875 84.648438 222.25 81.507812 237.980469 C 76.628906 262.425781 75.230469 292.804688 98.9375 292.015625 C 122.640625 291.246094 121.429688 280.878906 119.671875 269.363281 C 117.914062 257.847656 131.976562 210.984375 134.3125 193.570312 C 136.511719 177.121094 126.0625 142.992188 96.351562 147.898438 " fill-opacity="1" fill-rule="nonzero"/><path fill="#ef2d3b" d="M 140.5 173.515625 C 140.484375 167.628906 139.808594 161.949219 135.046875 157.96875 C 134.265625 157.328125 133.441406 156.75 132.582031 156.234375 C 130.066406 154.734375 127.304688 153.722656 124.621094 152.582031 C 122.945312 151.863281 121.382812 150.824219 119.617188 150.335938 C 119.148438 150.207031 115.203125 149.894531 115.644531 150.734375 C 116.542969 152.441406 123 157.125 123.675781 158.917969 C 127.113281 168.0625 122.511719 176.972656 112.628906 178.191406 C 103.847656 179.261719 95.425781 171.585938 90.820312 164.917969 C 88.332031 161.308594 87.140625 156.96875 86.9375 152.609375 C 80.683594 161.769531 72.617188 169.664062 65.179688 178.003906 C 64.441406 178.832031 63.679688 179.652344 62.914062 180.449219 C 64.601562 190.929688 66.144531 202.378906 66.867188 205.113281 C 66.980469 205.535156 67.082031 205.9375 67.167969 206.328125 C 70.273438 221.429688 77.699219 233.710938 78.375 249.0625 C 78.75 257.515625 71.609375 270.976562 70.457031 279.402344 C 68.234375 295.78125 126.238281 302.414062 135.324219 279.402344 C 135.324219 279.402344 124.429688 240.394531 131.441406 217.023438 C 135.597656 203.179688 140.546875 187.917969 140.5 173.515625 " fill-opacity="1" fill-rule="nonzero"/><path fill="#e0788a" d="M 85.367188 184.773438 C 85.367188 184.773438 86.835938 200.472656 84.765625 216.414062 C 83.453125 226.617188 81.941406 239.109375 80.554688 243.867188 C 77.089844 255.695312 64.453125 241.859375 63.617188 236.511719 C 62.578125 229.917969 62.078125 222.699219 61.601562 215.976562 C 60.964844 207.0625 55.992188 185.046875 63.117188 176.882812 C 69.867188 169.15625 82.945312 168.425781 85.367188 184.773438 " fill-opacity="1" fill-rule="nonzero"/><path fill="#e0788a" d="M 68.507812 244.386719 C 68.507812 244.386719 107.867188 271.597656 132.097656 270.917969 C 132.097656 270.917969 135.367188 259.429688 128.730469 258.078125 C 126.597656 257.644531 119.453125 255.179688 111.121094 250.835938 C 100.195312 245.140625 86.507812 233.523438 79.09375 233.792969 C 74.652344 233.957031 78.230469 239.101562 68.507812 244.386719 " fill-opacity="1" fill-rule="nonzero"/><path fill="#e0788a" d="M 130.980469 271.035156 C 130.980469 271.035156 124.789062 262.320312 128.191406 257.910156 C 131.582031 253.503906 140.125 243.089844 141.550781 244.75 C 142.976562 246.394531 134.40625 256.300781 136.253906 257.476562 C 138.085938 258.65625 134.875 253.667969 144.003906 252.914062 C 144.003906 252.914062 156.851562 277.832031 130.980469 271.035156 " fill-opacity="1" fill-rule="nonzero"/><path fill="#cf697e" d="M 100 125.433594 L 95.671875 154.601562 C 95.671875 154.601562 105 170.535156 115.3125 167.820312 C 114.460938 162.710938 113.195312 157.546875 113.484375 152.328125 C 113.695312 148.585938 114.640625 144.816406 115.3125 141.15625 L 100 125.433594 " fill-opacity="1" fill-rule="nonzero"/><path fill="#e0788a" d="M 88.359375 130.0625 C 88.359375 130.0625 83.378906 122.601562 87.011719 104.671875 C 90.640625 86.746094 118.171875 86.191406 124.589844 98.839844 C 131.007812 111.480469 122.152344 141.402344 122.152344 141.402344 C 122.152344 141.402344 108.003906 153.851562 88.359375 130.0625 " fill-opacity="1" fill-rule="nonzero"/><path fill="#ffffff" d="M 104.757812 131.792969 C 104.757812 131.792969 112.894531 133.0625 119.339844 131.707031 L 118.71875 135.113281 C 118.71875 135.113281 108.921875 137.0625 104.757812 131.792969 " fill-opacity="1" fill-rule="nonzero"/><path fill="#c75373" d="M 116.839844 126.648438 C 116.839844 126.648438 117 126.066406 117.21875 125.304688 C 117.347656 124.9375 117.410156 124.46875 117.476562 124.074219 C 117.550781 123.640625 117.4375 123.398438 117.300781 123.347656 L 117.28125 123.328125 C 117.53125 123.472656 117.359375 123.367188 117.410156 123.398438 L 117.378906 123.394531 L 117.289062 123.339844 L 117.117188 123.238281 L 116.796875 123.097656 C 116.644531 123.117188 116.570312 123.023438 116.324219 123.0625 C 115.921875 123.0625 115.460938 123.050781 115.074219 123.136719 C 114.257812 123.265625 113.703125 123.347656 113.703125 123.347656 L 113.65625 123.269531 C 113.65625 123.269531 114.117188 122.960938 114.894531 122.660156 C 115.273438 122.5 115.746094 122.34375 116.269531 122.308594 C 116.800781 122.226562 117.375 122.355469 117.851562 122.675781 C 118.339844 123.070312 118.359375 123.753906 118.21875 124.238281 C 118.09375 124.753906 117.871094 125.199219 117.679688 125.558594 C 117.261719 126.28125 116.902344 126.703125 116.902344 126.703125 L 116.839844 126.648438 " fill-opacity="1" fill-rule="nonzero"/><path fill="#211921" d="M 128.539062 111.664062 C 128.539062 111.664062 127.886719 111.394531 126.894531 111.121094 C 125.90625 110.875 124.5625 110.570312 123.242188 110.710938 C 122.585938 110.726562 121.921875 110.84375 121.34375 111.058594 C 120.765625 111.265625 120.214844 111.480469 119.789062 111.765625 C 118.90625 112.285156 118.398438 112.777344 118.375 112.75 C 118.398438 112.777344 118.726562 112.113281 119.554688 111.433594 C 119.945312 111.074219 120.492188 110.710938 121.125 110.457031 C 121.75 110.195312 122.46875 110.027344 123.191406 109.964844 C 124.664062 109.875 126.085938 110.285156 127.039062 110.734375 C 128.003906 111.1875 128.539062 111.664062 128.539062 111.664062 " fill-opacity="1" fill-rule="nonzero"/><path fill="#211921" d="M 123.359375 113.734375 C 123.359375 113.734375 123.878906 113.484375 124.316406 113.097656 C 124.535156 112.917969 124.714844 112.695312 124.820312 112.503906 L 124.921875 112.15625 C 124.921875 112.15625 124.921875 112.300781 124.890625 112.519531 C 124.816406 112.738281 124.664062 113.019531 124.472656 113.25 C 124.097656 113.726562 123.589844 114.105469 123.589844 114.105469 L 123.359375 113.734375 " fill-opacity="1" fill-rule="nonzero"/><path fill="#211921" d="M 122.507812 114.03125 C 122.507812 114.03125 122.871094 113.585938 123.121094 113.0625 C 123.25 112.804688 123.320312 112.53125 123.34375 112.304688 L 123.304688 111.953125 C 123.304688 111.953125 123.359375 112.085938 123.417969 112.304688 C 123.433594 112.53125 123.417969 112.839844 123.332031 113.136719 C 123.175781 113.726562 122.871094 114.265625 122.871094 114.265625 L 122.507812 114.03125 " fill-opacity="1" fill-rule="nonzero"/><path fill="#211921" d="M 124.152344 114.175781 C 124.152344 114.175781 124.714844 114.058594 125.226562 113.761719 C 125.484375 113.613281 125.703125 113.425781 125.84375 113.25 L 126.046875 112.933594 L 125.90625 113.292969 C 125.789062 113.496094 125.597656 113.734375 125.355469 113.933594 C 124.890625 114.351562 124.28125 114.59375 124.28125 114.59375 L 124.152344 114.175781 " fill-opacity="1" fill-rule="nonzero"/><path fill="#211921" d="M 125.078125 115.363281 C 125.078125 115.363281 124.023438 112.214844 121.15625 114.324219 C 119.585938 115.703125 120.886719 116.777344 122.183594 116.558594 C 123.480469 116.34375 123.78125 115.113281 123.1875 114.621094 C 123.1875 114.621094 123.828125 113.984375 125.078125 115.363281 " fill-opacity="1" fill-rule="nonzero"/><path fill="#211921" d="M 97.777344 111.925781 C 97.777344 111.925781 98.4375 111.214844 99.691406 110.480469 C 100.328125 110.136719 101.078125 109.722656 101.960938 109.464844 C 102.835938 109.199219 103.800781 109.007812 104.796875 108.96875 C 105.777344 108.957031 106.777344 109.097656 107.664062 109.375 C 108.113281 109.476562 108.507812 109.695312 108.882812 109.890625 C 109.273438 110.066406 109.601562 110.285156 109.894531 110.496094 C 110.523438 110.886719 110.917969 111.351562 111.214844 111.648438 C 111.496094 111.957031 111.652344 112.132812 111.652344 112.132812 C 111.625 112.183594 110.871094 111.566406 109.613281 110.992188 C 109.011719 110.65625 108.234375 110.429688 107.425781 110.222656 C 106.617188 109.996094 105.710938 109.925781 104.824219 109.976562 C 103.921875 109.964844 103.023438 110.097656 102.191406 110.300781 C 101.363281 110.515625 100.585938 110.734375 99.9375 110.992188 C 98.636719 111.480469 97.777344 111.925781 97.777344 111.925781 " fill-opacity="1" fill-rule="nonzero"/><path fill="#211921" d="M 104.769531 114.609375 C 104.769531 114.609375 104.050781 114.164062 103.472656 113.570312 C 103.171875 113.273438 102.953125 112.917969 102.824219 112.632812 C 102.742188 112.335938 102.722656 112.132812 102.722656 112.132812 C 102.722656 112.132812 102.78125 112.335938 102.910156 112.59375 C 103.074219 112.839844 103.34375 113.121094 103.671875 113.351562 C 104.3125 113.800781 105.042969 114.074219 105.042969 114.074219 L 104.769531 114.609375 " fill-opacity="1" fill-rule="nonzero"/><path fill="#211921" d="M 105.769531 114.742188 C 105.769531 114.742188 105.277344 114.046875 105.003906 113.273438 C 104.847656 112.890625 104.796875 112.464844 104.796875 112.160156 C 104.828125 111.851562 104.898438 111.664062 104.898438 111.664062 C 104.898438 111.664062 104.871094 111.867188 104.886719 112.15625 C 104.941406 112.445312 105.070312 112.816406 105.273438 113.144531 C 105.679688 113.828125 106.226562 114.367188 106.226562 114.367188 L 105.769531 114.742188 " fill-opacity="1" fill-rule="nonzero"/><path fill="#211921" d="M 103.890625 115.355469 C 103.902344 115.355469 103.054688 115.097656 102.359375 114.609375 C 102.015625 114.363281 101.722656 114.058594 101.539062 113.800781 C 101.398438 113.523438 101.296875 113.339844 101.296875 113.339844 C 101.296875 113.339844 101.425781 113.496094 101.613281 113.734375 C 101.832031 113.945312 102.15625 114.1875 102.515625 114.351562 C 103.253906 114.691406 104.019531 114.773438 104.019531 114.773438 L 103.890625 115.355469 " fill-opacity="1" fill-rule="nonzero"/><path fill="#211921" d="M 102.910156 116.503906 C 102.910156 116.503906 103.960938 112.113281 108.097656 114.621094 C 110.378906 116.273438 108.753906 117.890625 106.976562 117.765625 C 105.1875 117.625 104.628906 115.996094 105.378906 115.261719 C 105.378906 115.261719 104.4375 114.480469 102.910156 116.503906 " fill-opacity="1" fill-rule="nonzero"/><path fill="#211921" d="M 125.511719 91.484375 C 125.199219 93.332031 124.5 95.078125 123.175781 96.722656 C 120.59375 99.910156 117.558594 103.359375 113.65625 104.898438 C 111.214844 105.863281 108.042969 106.300781 105.410156 106.027344 C 91.351562 104.566406 94.117188 110.558594 95.003906 113.917969 C 95.875 117.265625 96.453125 123.574219 92.367188 124.519531 C 88.28125 125.457031 104.796875 129.105469 99.019531 135.460938 C 93.246094 141.824219 106.039062 154.953125 91.171875 163.574219 C 76.308594 172.179688 67.984375 161.371094 65.648438 157.140625 C 63.3125 152.914062 70.613281 145.917969 70.613281 145.917969 C 70.613281 145.917969 74.410156 144.144531 73.675781 136.542969 C 72.949219 128.957031 69.445312 108.507812 73.820312 106.457031 C 78.210938 104.414062 79.230469 83.832031 84.34375 83.242188 C 90.230469 82.570312 95.941406 79.5625 101.753906 78.367188 C 107.710938 77.132812 118.199219 75.355469 123.121094 80.125 C 124.558594 81.523438 125.179688 83.429688 125.4375 85.367188 C 125.714844 87.5 125.832031 89.546875 125.511719 91.484375 " fill-opacity="1" fill-rule="nonzero"/><path fill="#335a72" d="M 90.808594 397.390625 L 64.285156 515.585938 L 45.6875 509.367188 L 62.914062 397.390625 L 90.808594 397.390625 " fill-opacity="1" fill-rule="nonzero"/><path fill="#191a22" d="M 80.667969 158.410156 C 80.667969 158.410156 129.128906 211.285156 135.34375 239.53125 L 132.324219 249.898438 C 132.324219 249.898438 94.457031 176.300781 74.21875 168.136719 L 80.667969 158.410156 " fill-opacity="1" fill-rule="nonzero"/></svg>