<svg xmlns="http://www.w3.org/2000/svg" xmlns:xlink="http://www.w3.org/1999/xlink" width="20" zoomAndPan="magnify" viewBox="0 0 37.5 51.749998" height="20" preserveAspectRatio="xMidYMid meet" version="1.0"><defs><clipPath id="bb8efe46a2"><path d="M 0.28125 0.660156 L 36.972656 0.660156 L 36.972656 51.285156 L 0.28125 51.285156 Z M 0.28125 0.660156 " clip-rule="nonzero"/></clipPath></defs><g clip-path="url(#bb8efe46a2)"><path fill="#1b2730" d="M 36.910156 31.820312 C 36.890625 31.40625 36.792969 31.011719 36.613281 30.636719 C 36.433594 30.261719 36.191406 29.933594 35.882812 29.65625 C 35.574219 29.378906 35.222656 29.167969 34.832031 29.03125 C 34.441406 28.894531 34.039062 28.835938 33.625 28.859375 C 33.210938 28.882812 32.816406 28.988281 32.441406 29.167969 C 32.070312 29.347656 31.746094 29.59375 31.46875 29.90625 C 31.195312 30.21875 30.988281 30.570312 30.855469 30.964844 C 30.71875 31.355469 30.664062 31.761719 30.691406 32.175781 C 30.703125 32.402344 30.710938 32.636719 30.710938 32.867188 C 30.710938 33.34375 30.683594 33.824219 30.628906 34.300781 C 30.570312 34.773438 30.488281 35.246094 30.375 35.710938 C 30.265625 36.175781 30.125 36.636719 29.960938 37.085938 C 29.796875 37.535156 29.605469 37.972656 29.386719 38.398438 C 29.171875 38.824219 28.929688 39.238281 28.664062 39.636719 C 28.398438 40.035156 28.109375 40.414062 27.796875 40.78125 C 27.488281 41.144531 27.15625 41.488281 26.804688 41.8125 C 26.453125 42.136719 26.085938 42.441406 25.695312 42.722656 C 25.308594 43.003906 24.90625 43.261719 24.492188 43.496094 C 24.074219 43.730469 23.644531 43.9375 23.199219 44.121094 C 22.757812 44.300781 22.308594 44.457031 21.847656 44.585938 C 21.386719 44.714844 20.921875 44.816406 20.449219 44.890625 C 19.976562 44.964844 19.5 45.011719 19.023438 45.03125 C 18.546875 45.046875 18.066406 45.039062 17.589844 45 C 17.113281 44.960938 16.640625 44.894531 16.171875 44.796875 C 15.703125 44.703125 15.242188 44.582031 14.789062 44.433594 C 14.335938 44.285156 13.890625 44.109375 13.457031 43.90625 C 13.023438 43.703125 12.601562 43.476562 12.195312 43.226562 C 11.789062 42.972656 11.398438 42.699219 11.023438 42.402344 C 10.648438 42.101562 10.292969 41.785156 9.957031 41.445312 C 9.621094 41.105469 9.304688 40.746094 9.011719 40.367188 C 8.714844 39.992188 8.445312 39.597656 8.195312 39.1875 C 7.949219 38.777344 7.726562 38.355469 7.527344 37.917969 C 7.328125 37.484375 7.15625 37.039062 7.011719 36.582031 C 6.863281 36.125 6.746094 35.660156 6.65625 35.191406 C 6.5625 34.722656 6.5 34.246094 6.464844 33.769531 C 6.429688 33.292969 6.425781 32.8125 6.445312 32.335938 C 6.464844 31.855469 6.515625 31.378906 6.59375 30.90625 C 6.671875 30.433594 6.777344 29.96875 6.90625 29.507812 C 7.039062 29.046875 7.199219 28.597656 7.386719 28.15625 C 7.570312 27.714844 7.78125 27.285156 8.019531 26.867188 C 8.253906 26.453125 8.515625 26.050781 8.796875 25.664062 C 9.082031 25.277344 9.386719 24.910156 9.710938 24.5625 C 10.039062 24.210938 10.386719 23.882812 10.75 23.574219 C 11.117188 23.265625 11.5 22.980469 11.898438 22.714844 C 12.296875 22.453125 12.710938 22.214844 13.140625 22 C 13.566406 21.785156 14.007812 21.597656 14.457031 21.433594 C 14.90625 21.269531 15.363281 21.136719 15.828125 21.027344 C 16.296875 20.917969 16.765625 20.839844 17.242188 20.785156 C 17.714844 20.734375 18.191406 20.710938 18.671875 20.714844 C 19.148438 20.71875 19.625 20.75 20.101562 20.808594 C 20.574219 20.871094 21.042969 20.957031 21.507812 21.074219 C 21.972656 21.191406 22.425781 21.332031 22.875 21.503906 C 23.320312 21.671875 23.757812 21.867188 24.179688 22.089844 C 24.605469 22.3125 25.015625 22.554688 25.410156 22.824219 C 25.804688 23.097656 26.183594 23.386719 26.542969 23.703125 C 26.902344 24.015625 27.246094 24.351562 27.566406 24.707031 C 27.886719 25.0625 28.1875 25.433594 28.464844 25.824219 C 28.703125 26.160156 28.996094 26.441406 29.347656 26.660156 C 29.699219 26.878906 30.074219 27.023438 30.484375 27.09375 C 30.890625 27.160156 31.296875 27.148438 31.699219 27.054688 C 32.101562 26.964844 32.46875 26.796875 32.804688 26.558594 C 33.140625 26.316406 33.421875 26.023438 33.640625 25.671875 C 33.859375 25.320312 34.003906 24.941406 34.070312 24.535156 C 34.140625 24.125 34.128906 23.722656 34.035156 23.316406 C 33.945312 22.914062 33.777344 22.542969 33.539062 22.207031 C 32.222656 20.355469 30.617188 18.800781 28.726562 17.542969 C 26.835938 16.285156 24.78125 15.410156 22.566406 14.910156 L 27.628906 4.621094 C 27.792969 4.289062 27.886719 3.941406 27.910156 3.574219 C 27.933594 3.207031 27.886719 2.847656 27.769531 2.5 C 27.652344 2.152344 27.472656 1.839844 27.230469 1.5625 C 26.988281 1.285156 26.699219 1.066406 26.371094 0.902344 C 26.042969 0.738281 25.695312 0.644531 25.328125 0.621094 C 24.960938 0.597656 24.605469 0.644531 24.257812 0.761719 C 23.90625 0.882812 23.597656 1.0625 23.320312 1.304688 C 23.042969 1.546875 22.824219 1.832031 22.660156 2.164062 L 15.402344 14.746094 L 15.289062 14.769531 L 17.773438 5.039062 C 17.894531 4.679688 17.9375 4.3125 17.90625 3.9375 C 17.875 3.5625 17.773438 3.207031 17.597656 2.875 C 17.421875 2.542969 17.191406 2.257812 16.898438 2.019531 C 16.609375 1.78125 16.28125 1.609375 15.921875 1.503906 C 15.5625 1.398438 15.195312 1.367188 14.820312 1.410156 C 14.445312 1.453125 14.097656 1.570312 13.769531 1.757812 C 13.445312 1.945312 13.167969 2.1875 12.941406 2.488281 C 12.714844 2.789062 12.554688 3.121094 12.460938 3.484375 L 7.839844 17.636719 L 7.839844 7.992188 C 7.863281 7.617188 7.808594 7.253906 7.683594 6.902344 C 7.554688 6.550781 7.367188 6.238281 7.117188 5.964844 C 6.863281 5.6875 6.566406 5.472656 6.230469 5.316406 C 5.890625 5.164062 5.535156 5.078125 5.160156 5.066406 C 4.789062 5.054688 4.429688 5.117188 4.082031 5.253906 C 3.734375 5.386719 3.425781 5.582031 3.15625 5.84375 C 2.886719 6.101562 2.679688 6.402344 2.53125 6.746094 C 2.386719 7.089844 2.308594 7.445312 2.308594 7.820312 L 1.765625 25.445312 C 1.492188 26.070312 1.25 26.707031 1.046875 27.359375 C 0.84375 28.007812 0.675781 28.667969 0.546875 29.339844 C 0.414062 30.007812 0.320312 30.683594 0.265625 31.363281 C 0.210938 32.046875 0.191406 32.726562 0.210938 33.410156 C 0.234375 34.089844 0.289062 34.769531 0.386719 35.445312 C 0.480469 36.121094 0.613281 36.789062 0.78125 37.453125 C 0.953125 38.113281 1.160156 38.761719 1.398438 39.402344 C 1.640625 40.039062 1.917969 40.660156 2.230469 41.269531 C 2.539062 41.875 2.882812 42.464844 3.261719 43.035156 C 3.636719 43.601562 4.042969 44.148438 4.480469 44.671875 C 4.917969 45.195312 5.382812 45.695312 5.875 46.167969 C 6.367188 46.636719 6.882812 47.082031 7.425781 47.496094 C 7.964844 47.910156 8.527344 48.292969 9.113281 48.644531 C 9.695312 48.996094 10.296875 49.3125 10.917969 49.597656 C 11.535156 49.882812 12.167969 50.132812 12.816406 50.347656 C 13.464844 50.558594 14.121094 50.738281 14.785156 50.878906 C 15.453125 51.019531 16.125 51.121094 16.804688 51.1875 C 17.480469 51.253906 18.160156 51.28125 18.84375 51.269531 C 19.523438 51.261719 20.203125 51.214844 20.878906 51.128906 C 21.554688 51.042969 22.222656 50.917969 22.882812 50.757812 C 23.546875 50.597656 24.199219 50.402344 24.839844 50.167969 C 25.480469 49.9375 26.105469 49.667969 26.714844 49.367188 C 27.324219 49.0625 27.917969 48.726562 28.492188 48.359375 C 29.0625 47.992188 29.617188 47.589844 30.144531 47.160156 C 30.671875 46.730469 31.175781 46.273438 31.65625 45.785156 C 32.132812 45.300781 32.582031 44.789062 33.003906 44.253906 C 33.425781 43.714844 33.816406 43.15625 34.175781 42.578125 C 34.535156 41.996094 34.859375 41.398438 35.152344 40.785156 C 35.445312 40.167969 35.707031 39.535156 35.929688 38.890625 C 36.152344 38.246094 36.335938 37.589844 36.488281 36.925781 C 36.636719 36.257812 36.75 35.585938 36.828125 34.910156 C 36.902344 34.230469 36.941406 33.550781 36.941406 32.867188 C 36.941406 32.515625 36.933594 32.167969 36.910156 31.820312 Z M 36.910156 31.820312 " fill-opacity="1" fill-rule="nonzero"/></g><path fill="#1b2730" d="M 18.570312 21.710938 C 17.757812 21.710938 16.957031 21.800781 16.167969 21.976562 L 17.617188 24.347656 L 14.753906 39.296875 L 18.570312 42.761719 L 22.390625 39.296875 L 19.527344 24.347656 L 20.976562 21.976562 C 20.183594 21.800781 19.382812 21.710938 18.570312 21.710938 Z M 18.570312 21.710938 " fill-opacity="1" fill-rule="nonzero"/></svg>