<svg xmlns="http://www.w3.org/2000/svg" xmlns:xlink="http://www.w3.org/1999/xlink" width="500" zoomAndPan="magnify" viewBox="0 0 375 374.999991" height="500" preserveAspectRatio="xMidYMid meet" version="1.0"><defs><g/><clipPath id="0cecc64523"><path d="M 26.722656 74.90625 L 237.988281 74.90625 L 237.988281 285.738281 L 26.722656 285.738281 Z M 26.722656 74.90625 " clip-rule="nonzero"/></clipPath></defs><path fill="#1b2730" d="M 149.058594 182.824219 C 140.296875 198.511719 123.539062 209.109375 104.304688 209.109375 C 85.074219 209.109375 68.316406 198.511719 59.554688 182.824219 C 61.273438 179.460938 63.640625 176.339844 66.527344 173.554688 C 67.71875 172.386719 69.007812 171.289062 70.378906 170.257812 C 77.078125 165.179688 85.753906 161.601562 95.460938 160.226562 C 97.203125 159.976562 98.976562 159.800781 100.773438 159.703125 C 101.242188 159.679688 101.707031 159.660156 102.179688 159.644531 L 102.140625 159.824219 L 101.859375 161.289062 L 94.636719 193.402344 L 104.304688 204.121094 L 113.972656 193.402344 L 106.75 161.289062 L 106.464844 159.824219 L 106.429688 159.644531 C 106.902344 159.660156 107.367188 159.679688 107.832031 159.703125 C 109.628906 159.800781 111.40625 159.976562 113.148438 160.226562 C 122.855469 161.601562 131.527344 165.179688 138.230469 170.257812 C 142.910156 173.792969 146.632812 178.070312 149.058594 182.824219 " fill-opacity="1" fill-rule="nonzero"/><path fill="#1b2730" d="M 97.1875 154.667969 C 98.433594 155.058594 99.730469 155.351562 101.0625 155.527344 C 101.785156 155.628906 102.515625 155.691406 103.261719 155.726562 C 103.601562 155.746094 103.949219 155.746094 104.304688 155.746094 C 104.65625 155.746094 105.003906 155.746094 105.34375 155.726562 C 106.089844 155.691406 106.824219 155.628906 107.542969 155.527344 C 108.875 155.351562 110.171875 155.058594 111.421875 154.667969 C 121.15625 151.632812 128.214844 142.554688 128.214844 131.820312 C 128.214844 118.601562 117.511719 107.886719 104.304688 107.886719 C 91.09375 107.886719 80.390625 118.601562 80.390625 131.820312 C 80.390625 142.554688 87.453125 151.632812 97.1875 154.667969 " fill-opacity="1" fill-rule="nonzero"/><g clip-path="url(#0cecc64523)"><path fill="#1b2730" d="M 104.304688 91.347656 C 137.851562 91.347656 165.039062 118.5625 165.039062 152.136719 C 165.039062 162.898438 162.246094 173.007812 157.34375 181.773438 C 146.957031 200.367188 127.097656 212.929688 104.304688 212.929688 C 81.515625 212.929688 61.65625 200.367188 51.273438 181.773438 C 46.367188 173.007812 43.574219 162.898438 43.574219 152.136719 C 43.574219 118.5625 70.765625 91.347656 104.304688 91.347656 Z M 235.644531 272.800781 L 164.40625 201.496094 L 167.210938 197.601562 C 167.9375 196.59375 168.640625 195.5625 169.3125 194.519531 L 169.3125 194.511719 C 178.511719 180.339844 182.839844 163.386719 181.550781 146.359375 C 180.15625 127.878906 172.1875 110.5 159.113281 97.410156 C 144.496094 82.78125 125.035156 74.722656 104.304688 74.722656 C 83.574219 74.722656 64.109375 82.78125 49.496094 97.410156 C 23.300781 123.628906 19.808594 164.105469 39.039062 194.121094 C 41.980469 198.738281 45.46875 203.097656 49.496094 207.128906 C 51.667969 209.300781 53.949219 211.328125 56.320312 213.203125 C 56.707031 213.507812 57.09375 213.808594 57.484375 214.105469 C 65.90625 220.519531 75.480469 225.085938 85.695312 227.585938 C 91.710938 229.058594 97.949219 229.8125 104.304688 229.8125 C 110.644531 229.8125 116.875 229.058594 122.894531 227.585938 C 132.457031 225.246094 141.488281 221.085938 149.59375 215.234375 L 151.160156 214.105469 L 152.289062 213.296875 L 153.484375 212.429688 L 224.722656 283.730469 C 226.183594 285.191406 228.121094 285.996094 230.179688 285.996094 C 232.246094 285.996094 234.1875 285.191406 235.644531 283.730469 C 237.101562 282.269531 237.902344 280.328125 237.902344 278.261719 C 237.902344 276.203125 237.101562 274.261719 235.644531 272.800781 " fill-opacity="1" fill-rule="nonzero"/></g><g fill="#1b2730" fill-opacity="1"><g transform="translate(256.446638, 124.888146)"><g><path d="M 28.125 -10.90625 C 28.125 -8.570312 27.554688 -6.546875 26.421875 -4.828125 C 25.296875 -3.109375 23.65625 -1.785156 21.5 -0.859375 C 19.34375 0.0664062 16.722656 0.53125 13.640625 0.53125 C 12.285156 0.53125 10.957031 0.441406 9.65625 0.265625 C 8.351562 0.0859375 7.109375 -0.171875 5.921875 -0.515625 C 4.734375 -0.867188 3.601562 -1.304688 2.53125 -1.828125 L 2.53125 -9.5625 C 4.382812 -8.738281 6.3125 -7.992188 8.3125 -7.328125 C 10.320312 -6.671875 12.3125 -6.34375 14.28125 -6.34375 C 15.644531 -6.34375 16.742188 -6.519531 17.578125 -6.875 C 18.410156 -7.226562 19.015625 -7.71875 19.390625 -8.34375 C 19.765625 -8.976562 19.953125 -9.695312 19.953125 -10.5 C 19.953125 -11.488281 19.617188 -12.332031 18.953125 -13.03125 C 18.296875 -13.726562 17.390625 -14.378906 16.234375 -14.984375 C 15.078125 -15.597656 13.773438 -16.253906 12.328125 -16.953125 C 11.410156 -17.378906 10.414062 -17.898438 9.34375 -18.515625 C 8.269531 -19.128906 7.25 -19.882812 6.28125 -20.78125 C 5.3125 -21.675781 4.519531 -22.765625 3.90625 -24.046875 C 3.289062 -25.328125 2.984375 -26.863281 2.984375 -28.65625 C 2.984375 -31 3.519531 -33.003906 4.59375 -34.671875 C 5.664062 -36.335938 7.195312 -37.613281 9.1875 -38.5 C 11.1875 -39.382812 13.550781 -39.828125 16.28125 -39.828125 C 18.320312 -39.828125 20.265625 -39.585938 22.109375 -39.109375 C 23.960938 -38.640625 25.90625 -37.957031 27.9375 -37.0625 L 25.25 -30.59375 C 23.4375 -31.320312 21.8125 -31.882812 20.375 -32.28125 C 18.945312 -32.6875 17.488281 -32.890625 16 -32.890625 C 14.96875 -32.890625 14.082031 -32.722656 13.34375 -32.390625 C 12.613281 -32.066406 12.0625 -31.601562 11.6875 -31 C 11.3125 -30.40625 11.125 -29.710938 11.125 -28.921875 C 11.125 -27.992188 11.394531 -27.210938 11.9375 -26.578125 C 12.476562 -25.941406 13.300781 -25.328125 14.40625 -24.734375 C 15.507812 -24.140625 16.882812 -23.453125 18.53125 -22.671875 C 20.53125 -21.722656 22.242188 -20.734375 23.671875 -19.703125 C 25.097656 -18.671875 26.195312 -17.457031 26.96875 -16.0625 C 27.738281 -14.675781 28.125 -12.957031 28.125 -10.90625 Z M 28.125 -10.90625 "/></g></g></g><g fill="#1b2730" fill-opacity="1"><g transform="translate(256.446638, 201.388141)"><g><path d="M 27.546875 0 L 4.9375 0 L 4.9375 -39.265625 L 27.546875 -39.265625 L 27.546875 -32.4375 L 13.265625 -32.4375 L 13.265625 -23.828125 L 26.5625 -23.828125 L 26.5625 -17 L 13.265625 -17 L 13.265625 -6.875 L 27.546875 -6.875 Z M 27.546875 0 "/></g></g></g><g fill="#1b2730" fill-opacity="1"><g transform="translate(256.446638, 277.888136)"><g><path d="M 53.171875 -39.265625 L 43.1875 0 L 33.703125 0 L 28.390625 -20.625 C 28.273438 -21.019531 28.128906 -21.617188 27.953125 -22.421875 C 27.773438 -23.234375 27.585938 -24.113281 27.390625 -25.0625 C 27.191406 -26.019531 27.015625 -26.925781 26.859375 -27.78125 C 26.710938 -28.632812 26.613281 -29.3125 26.5625 -29.8125 C 26.507812 -29.3125 26.40625 -28.640625 26.25 -27.796875 C 26.09375 -26.953125 25.921875 -26.054688 25.734375 -25.109375 C 25.546875 -24.160156 25.363281 -23.273438 25.1875 -22.453125 C 25.007812 -21.628906 24.867188 -21.003906 24.765625 -20.578125 L 19.46875 0 L 10.015625 0 L 0 -39.265625 L 8.1875 -39.265625 L 13.21875 -17.828125 C 13.351562 -17.179688 13.515625 -16.410156 13.703125 -15.515625 C 13.890625 -14.628906 14.078125 -13.695312 14.265625 -12.71875 C 14.460938 -11.738281 14.632812 -10.796875 14.78125 -9.890625 C 14.9375 -8.992188 15.050781 -8.210938 15.125 -7.546875 C 15.207031 -8.222656 15.320312 -9.015625 15.46875 -9.921875 C 15.613281 -10.828125 15.769531 -11.75 15.9375 -12.6875 C 16.101562 -13.625 16.273438 -14.492188 16.453125 -15.296875 C 16.640625 -16.109375 16.804688 -16.765625 16.953125 -17.265625 L 22.671875 -39.265625 L 30.53125 -39.265625 L 36.25 -17.265625 C 36.375 -16.785156 36.519531 -16.132812 36.6875 -15.3125 C 36.863281 -14.5 37.039062 -13.617188 37.21875 -12.671875 C 37.394531 -11.722656 37.5625 -10.796875 37.71875 -9.890625 C 37.875 -8.992188 37.984375 -8.210938 38.046875 -7.546875 C 38.179688 -8.441406 38.359375 -9.53125 38.578125 -10.8125 C 38.796875 -12.09375 39.035156 -13.367188 39.296875 -14.640625 C 39.554688 -15.910156 39.785156 -16.972656 39.984375 -17.828125 L 44.984375 -39.265625 Z M 53.171875 -39.265625 "/></g></g></g></svg>