<svg xmlns="http://www.w3.org/2000/svg" xmlns:xlink="http://www.w3.org/1999/xlink" width="288" zoomAndPan="magnify" viewBox="0 0 216 374.999991" height="500" preserveAspectRatio="xMidYMid meet" version="1.0"><defs><g/><clipPath id="06dc0757fd"><path d="M 0 0 L 215.882812 0 L 215.882812 297.75 L 0 297.75 Z M 0 0 " clip-rule="nonzero"/></clipPath></defs><g clip-path="url(#06dc0757fd)"><path fill="#1b2730" d="M 215.527344 182.976562 C 215.496094 182.375 215.4375 181.773438 215.347656 181.179688 C 215.257812 180.582031 215.140625 179.992188 214.996094 179.40625 C 214.847656 178.820312 214.671875 178.246094 214.46875 177.679688 C 214.261719 177.109375 214.03125 176.554688 213.773438 176.011719 C 213.515625 175.464844 213.230469 174.933594 212.917969 174.417969 C 212.605469 173.902344 212.269531 173.402344 211.910156 172.917969 C 211.550781 172.4375 211.167969 171.972656 210.757812 171.527344 C 210.351562 171.082031 209.925781 170.65625 209.476562 170.253906 C 209.027344 169.851562 208.5625 169.472656 208.078125 169.113281 C 207.589844 168.757812 207.089844 168.425781 206.570312 168.117188 C 206.050781 167.808594 205.519531 167.527344 204.972656 167.273438 C 204.425781 167.019531 203.867188 166.792969 203.300781 166.589844 C 202.730469 166.390625 202.152344 166.21875 201.566406 166.078125 C 200.980469 165.933594 200.390625 165.820312 199.792969 165.738281 C 199.195312 165.652344 198.597656 165.597656 197.996094 165.574219 C 197.390625 165.546875 196.789062 165.550781 196.1875 165.585938 C 195.585938 165.621094 194.988281 165.683594 194.390625 165.777344 C 193.796875 165.871094 193.207031 165.992188 192.625 166.144531 C 192.039062 166.296875 191.464844 166.476562 190.898438 166.683594 C 190.332031 166.890625 189.78125 167.128906 189.238281 167.390625 C 188.695312 167.652344 188.167969 167.941406 187.652344 168.257812 C 187.136719 168.574219 186.640625 168.914062 186.160156 169.277344 C 185.679688 169.640625 185.21875 170.027344 184.777344 170.4375 C 184.335938 170.847656 183.914062 171.277344 183.515625 171.730469 C 183.113281 172.183594 182.738281 172.652344 182.382812 173.140625 C 182.03125 173.628906 181.703125 174.132812 181.398438 174.65625 C 181.09375 175.175781 180.820312 175.710938 180.566406 176.257812 C 180.316406 176.808594 180.09375 177.367188 179.898438 177.9375 C 179.703125 178.507812 179.535156 179.085938 179.398438 179.671875 C 179.257812 180.257812 179.148438 180.851562 179.070312 181.449219 C 178.988281 182.046875 178.941406 182.648438 178.917969 183.25 C 178.898438 183.851562 178.90625 184.453125 178.945312 185.054688 C 179.019531 186.390625 179.054688 187.75 179.054688 189.105469 C 179.054688 190.511719 179.015625 191.917969 178.933594 193.320312 C 178.851562 194.722656 178.726562 196.121094 178.5625 197.515625 C 178.398438 198.914062 178.195312 200.300781 177.949219 201.683594 C 177.703125 203.070312 177.414062 204.445312 177.085938 205.808594 C 176.757812 207.175781 176.390625 208.53125 175.984375 209.878906 C 175.578125 211.222656 175.128906 212.554688 174.644531 213.871094 C 174.15625 215.191406 173.632812 216.492188 173.070312 217.78125 C 172.507812 219.070312 171.90625 220.339844 171.265625 221.589844 C 170.628906 222.84375 169.957031 224.074219 169.246094 225.285156 C 168.535156 226.5 167.789062 227.6875 167.007812 228.855469 C 166.226562 230.023438 165.410156 231.167969 164.5625 232.289062 C 163.714844 233.410156 162.832031 234.503906 161.917969 235.570312 C 161.007812 236.640625 160.0625 237.679688 159.089844 238.691406 C 158.113281 239.703125 157.109375 240.6875 156.078125 241.640625 C 155.042969 242.59375 153.984375 243.515625 152.898438 244.40625 C 151.8125 245.296875 150.699219 246.152344 149.5625 246.976562 C 148.421875 247.804688 147.261719 248.59375 146.078125 249.347656 C 144.894531 250.105469 143.6875 250.828125 142.460938 251.511719 C 141.234375 252.195312 139.988281 252.84375 138.722656 253.457031 C 137.460938 254.066406 136.175781 254.640625 134.878906 255.179688 C 133.578125 255.714844 132.265625 256.210938 130.9375 256.667969 C 129.609375 257.128906 128.269531 257.546875 126.914062 257.925781 C 125.5625 258.304688 124.199219 258.644531 122.828125 258.941406 C 121.453125 259.242188 120.074219 259.5 118.683594 259.714844 C 117.296875 259.933594 115.902344 260.109375 114.503906 260.242188 C 113.105469 260.378906 111.703125 260.472656 110.300781 260.523438 C 108.898438 260.578125 107.492188 260.585938 106.085938 260.558594 C 104.683594 260.527344 103.28125 260.453125 101.878906 260.339844 C 100.480469 260.226562 99.082031 260.070312 97.691406 259.875 C 96.300781 259.679688 94.917969 259.441406 93.539062 259.164062 C 92.160156 258.886719 90.792969 258.570312 89.433594 258.210938 C 88.074219 257.851562 86.730469 257.453125 85.394531 257.015625 C 84.058594 256.578125 82.738281 256.101562 81.429688 255.585938 C 80.125 255.070312 78.832031 254.515625 77.558594 253.921875 C 76.285156 253.332031 75.03125 252.703125 73.792969 252.035156 C 72.554688 251.371094 71.339844 250.667969 70.144531 249.929688 C 68.949219 249.191406 67.773438 248.417969 66.625 247.609375 C 65.476562 246.804688 64.347656 245.964844 63.25 245.089844 C 62.148438 244.214844 61.074219 243.308594 60.027344 242.371094 C 58.980469 241.433594 57.960938 240.46875 56.972656 239.472656 C 55.984375 238.472656 55.023438 237.449219 54.09375 236.394531 C 53.164062 235.339844 52.265625 234.257812 51.402344 233.152344 C 50.535156 232.046875 49.703125 230.914062 48.90625 229.757812 C 48.105469 228.601562 47.34375 227.421875 46.613281 226.222656 C 45.882812 225.019531 45.191406 223.800781 44.535156 222.558594 C 43.875 221.316406 43.257812 220.054688 42.675781 218.777344 C 42.089844 217.496094 41.546875 216.203125 41.039062 214.890625 C 40.535156 213.582031 40.066406 212.257812 39.640625 210.917969 C 39.210938 209.578125 38.824219 208.230469 38.472656 206.867188 C 38.125 205.507812 37.816406 204.136719 37.550781 202.757812 C 37.285156 201.378906 37.054688 199.992188 36.871094 198.597656 C 36.683594 197.207031 36.539062 195.808594 36.4375 194.40625 C 36.335938 193.003906 36.273438 191.601562 36.253906 190.195312 C 36.230469 188.792969 36.253906 187.386719 36.316406 185.984375 C 36.378906 184.578125 36.480469 183.179688 36.628906 181.78125 C 36.773438 180.382812 36.957031 178.992188 37.1875 177.605469 C 37.414062 176.21875 37.679688 174.839844 37.992188 173.46875 C 38.300781 172.097656 38.648438 170.738281 39.039062 169.386719 C 39.425781 168.035156 39.855469 166.699219 40.324219 165.375 C 40.789062 164.046875 41.296875 162.738281 41.84375 161.445312 C 42.386719 160.148438 42.972656 158.871094 43.59375 157.609375 C 44.214844 156.347656 44.871094 155.109375 45.566406 153.886719 C 46.257812 152.664062 46.988281 151.464844 47.753906 150.285156 C 48.519531 149.105469 49.316406 147.953125 50.148438 146.820312 C 50.984375 145.6875 51.847656 144.582031 52.746094 143.5 C 53.644531 142.421875 54.574219 141.367188 55.535156 140.34375 C 56.496094 139.316406 57.488281 138.320312 58.503906 137.355469 C 59.523438 136.386719 60.570312 135.449219 61.648438 134.546875 C 62.722656 133.640625 63.820312 132.765625 64.949219 131.925781 C 66.074219 131.085938 67.222656 130.28125 68.398438 129.507812 C 69.570312 128.734375 70.765625 127.996094 71.984375 127.296875 C 73.203125 126.59375 74.4375 125.929688 75.695312 125.300781 C 76.953125 124.671875 78.226562 124.078125 79.515625 123.527344 C 80.808594 122.972656 82.113281 122.457031 83.4375 121.980469 C 84.757812 121.503906 86.09375 121.066406 87.441406 120.667969 C 88.789062 120.273438 90.148438 119.914062 91.515625 119.597656 C 92.882812 119.277344 94.261719 119.003906 95.648438 118.765625 C 97.03125 118.53125 98.421875 118.335938 99.820312 118.179688 C 101.214844 118.027344 102.617188 117.914062 104.019531 117.84375 C 105.421875 117.769531 106.828125 117.742188 108.230469 117.753906 C 109.636719 117.761719 111.039062 117.816406 112.441406 117.910156 C 113.84375 118.003906 115.242188 118.140625 116.636719 118.316406 C 118.03125 118.496094 119.417969 118.710938 120.796875 118.972656 C 122.179688 119.230469 123.550781 119.527344 124.914062 119.867188 C 126.277344 120.207031 127.628906 120.589844 128.972656 121.007812 C 130.3125 121.425781 131.640625 121.886719 132.953125 122.382812 C 134.265625 122.882812 135.566406 123.417969 136.847656 123.992188 C 138.128906 124.566406 139.394531 125.179688 140.640625 125.828125 C 141.886719 126.476562 143.113281 127.164062 144.316406 127.886719 C 145.523438 128.605469 146.707031 129.363281 147.867188 130.15625 C 149.027344 130.945312 150.164062 131.769531 151.277344 132.628906 C 152.390625 133.488281 153.476562 134.378906 154.535156 135.300781 C 155.597656 136.226562 156.628906 137.179688 157.632812 138.160156 C 158.632812 139.144531 159.609375 140.15625 160.550781 141.199219 C 161.496094 142.238281 162.40625 143.308594 163.289062 144.402344 C 164.167969 145.496094 165.015625 146.617188 165.832031 147.761719 C 166.179688 148.25 166.550781 148.722656 166.945312 149.175781 C 167.339844 149.625 167.753906 150.058594 168.191406 150.46875 C 168.628906 150.882812 169.082031 151.269531 169.558594 151.636719 C 170.03125 152.003906 170.523438 152.347656 171.03125 152.664062 C 171.539062 152.984375 172.0625 153.277344 172.601562 153.542969 C 173.136719 153.808594 173.6875 154.050781 174.246094 154.261719 C 174.808594 154.476562 175.378906 154.660156 175.957031 154.816406 C 176.535156 154.976562 177.121094 155.105469 177.714844 155.203125 C 178.304688 155.304688 178.898438 155.375 179.5 155.414062 C 180.097656 155.457031 180.695312 155.46875 181.296875 155.449219 C 181.894531 155.433594 182.492188 155.386719 183.085938 155.308594 C 183.683594 155.234375 184.273438 155.128906 184.855469 154.992188 C 185.441406 154.859375 186.019531 154.695312 186.585938 154.503906 C 187.15625 154.3125 187.714844 154.097656 188.261719 153.851562 C 188.808594 153.605469 189.34375 153.332031 189.863281 153.035156 C 190.382812 152.734375 190.886719 152.414062 191.375 152.066406 C 191.867188 151.71875 192.335938 151.347656 192.789062 150.953125 C 193.242188 150.558594 193.671875 150.144531 194.085938 149.707031 C 194.496094 149.269531 194.886719 148.816406 195.253906 148.339844 C 195.617188 147.867188 195.960938 147.375 196.28125 146.867188 C 196.597656 146.359375 196.890625 145.835938 197.160156 145.296875 C 197.425781 144.761719 197.667969 144.210938 197.878906 143.652344 C 198.09375 143.089844 198.277344 142.519531 198.4375 141.941406 C 198.59375 141.363281 198.722656 140.777344 198.824219 140.1875 C 198.921875 139.59375 198.992188 139 199.035156 138.402344 C 199.074219 137.800781 199.089844 137.203125 199.070312 136.601562 C 199.054688 136.003906 199.007812 135.40625 198.929688 134.8125 C 198.855469 134.214844 198.75 133.625 198.617188 133.042969 C 198.480469 132.457031 198.320312 131.878906 198.128906 131.3125 C 197.9375 130.742188 197.71875 130.183594 197.472656 129.636719 C 197.230469 129.089844 196.957031 128.554688 196.660156 128.035156 C 196.363281 127.511719 196.039062 127.007812 195.691406 126.519531 C 193.773438 123.828125 191.738281 121.234375 189.582031 118.730469 C 187.429688 116.226562 185.164062 113.828125 182.789062 111.53125 C 180.414062 109.234375 177.941406 107.050781 175.367188 104.980469 C 172.792969 102.910156 170.128906 100.964844 167.378906 99.136719 C 164.628906 97.308594 161.796875 95.613281 158.890625 94.046875 C 155.984375 92.476562 153.011719 91.046875 149.972656 89.75 C 146.933594 88.453125 143.84375 87.300781 140.699219 86.285156 C 137.558594 85.273438 134.375 84.40625 131.152344 83.683594 L 160.925781 23.261719 C 161.164062 22.78125 161.375 22.292969 161.5625 21.792969 C 161.75 21.292969 161.914062 20.785156 162.054688 20.269531 C 162.191406 19.753906 162.304688 19.234375 162.390625 18.707031 C 162.476562 18.179688 162.539062 17.652344 162.574219 17.117188 C 162.609375 16.585938 162.617188 16.054688 162.601562 15.519531 C 162.585938 14.988281 162.539062 14.457031 162.472656 13.925781 C 162.402344 13.398438 162.304688 12.871094 162.1875 12.351562 C 162.066406 11.832031 161.917969 11.320312 161.746094 10.816406 C 161.574219 10.308594 161.378906 9.8125 161.160156 9.328125 C 160.941406 8.839844 160.695312 8.367188 160.429688 7.902344 C 160.164062 7.441406 159.875 6.992188 159.5625 6.558594 C 159.253906 6.125 158.921875 5.707031 158.570312 5.308594 C 158.21875 4.90625 157.847656 4.523438 157.457031 4.15625 C 157.070312 3.792969 156.664062 3.445312 156.238281 3.121094 C 155.816406 2.796875 155.378906 2.492188 154.925781 2.210938 C 154.472656 1.929688 154.007812 1.671875 153.527344 1.433594 C 153.050781 1.199219 152.558594 0.984375 152.0625 0.796875 C 151.5625 0.609375 151.054688 0.445312 150.539062 0.308594 C 150.023438 0.167969 149.503906 0.0546875 148.976562 -0.03125 C 148.449219 -0.117188 147.917969 -0.179688 147.386719 -0.214844 C 146.855469 -0.25 146.320312 -0.257812 145.789062 -0.242188 C 145.253906 -0.222656 144.722656 -0.179688 144.195312 -0.109375 C 143.664062 -0.0429688 143.140625 0.0546875 142.621094 0.175781 C 142.101562 0.296875 141.589844 0.441406 141.082031 0.613281 C 140.578125 0.785156 140.082031 0.980469 139.597656 1.199219 C 139.109375 1.421875 138.636719 1.664062 138.171875 1.929688 C 137.710938 2.199219 137.261719 2.484375 136.828125 2.796875 C 136.394531 3.109375 135.976562 3.4375 135.574219 3.789062 C 135.175781 4.140625 134.792969 4.511719 134.425781 4.902344 C 134.0625 5.292969 133.714844 5.699219 133.390625 6.121094 C 133.066406 6.542969 132.761719 6.984375 132.480469 7.4375 C 132.199219 7.890625 131.941406 8.355469 131.703125 8.832031 L 89.003906 82.722656 L 88.34375 82.84375 L 102.960938 25.714844 C 103.132812 25.195312 103.277344 24.667969 103.398438 24.136719 C 103.515625 23.605469 103.605469 23.066406 103.671875 22.523438 C 103.738281 21.984375 103.773438 21.4375 103.785156 20.894531 C 103.792969 20.347656 103.777344 19.800781 103.730469 19.257812 C 103.6875 18.714844 103.617188 18.175781 103.515625 17.636719 C 103.417969 17.101562 103.292969 16.570312 103.140625 16.046875 C 102.988281 15.523438 102.808594 15.007812 102.605469 14.5 C 102.402344 13.996094 102.171875 13.5 101.917969 13.015625 C 101.664062 12.535156 101.386719 12.066406 101.085938 11.609375 C 100.785156 11.152344 100.460938 10.714844 100.117188 10.292969 C 99.773438 9.871094 99.40625 9.464844 99.019531 9.078125 C 98.636719 8.691406 98.230469 8.328125 97.808594 7.980469 C 97.386719 7.636719 96.945312 7.3125 96.492188 7.011719 C 96.039062 6.710938 95.566406 6.433594 95.085938 6.179688 C 94.601562 5.921875 94.109375 5.695312 93.601562 5.488281 C 93.097656 5.285156 92.582031 5.105469 92.058594 4.953125 C 91.535156 4.800781 91.003906 4.675781 90.464844 4.574219 C 89.929688 4.476562 89.390625 4.402344 88.847656 4.359375 C 88.300781 4.3125 87.757812 4.296875 87.210938 4.304688 C 86.664062 4.316406 86.121094 4.351562 85.582031 4.417969 C 85.039062 4.480469 84.5 4.570312 83.96875 4.691406 C 83.433594 4.808594 82.910156 4.953125 82.390625 5.125 C 81.875 5.296875 81.363281 5.492188 80.867188 5.714844 C 80.367188 5.9375 79.882812 6.183594 79.410156 6.453125 C 78.933594 6.726562 78.476562 7.019531 78.03125 7.335938 C 77.585938 7.652344 77.160156 7.992188 76.75 8.351562 C 76.339844 8.710938 75.949219 9.09375 75.578125 9.492188 C 75.207031 9.890625 74.855469 10.308594 74.523438 10.742188 C 74.195312 11.175781 73.886719 11.628906 73.601562 12.09375 C 73.316406 12.558594 73.058594 13.039062 72.820312 13.53125 C 72.585938 14.019531 72.371094 14.523438 72.1875 15.035156 C 72 15.550781 71.839844 16.070312 71.707031 16.601562 L 44.527344 99.699219 L 44.527344 43.050781 C 44.554688 42.507812 44.558594 41.96875 44.535156 41.425781 C 44.507812 40.886719 44.457031 40.347656 44.378906 39.8125 C 44.300781 39.277344 44.195312 38.746094 44.0625 38.21875 C 43.933594 37.695312 43.777344 37.179688 43.59375 36.667969 C 43.410156 36.160156 43.203125 35.660156 42.96875 35.171875 C 42.738281 34.683594 42.480469 34.207031 42.199219 33.742188 C 41.921875 33.277344 41.617188 32.832031 41.292969 32.398438 C 40.96875 31.964844 40.621094 31.550781 40.257812 31.148438 C 39.890625 30.75 39.503906 30.371094 39.101562 30.011719 C 38.695312 29.652344 38.273438 29.3125 37.835938 28.996094 C 37.398438 28.675781 36.945312 28.378906 36.480469 28.105469 C 36.011719 27.835938 35.53125 27.585938 35.039062 27.359375 C 34.546875 27.132812 34.046875 26.933594 33.53125 26.757812 C 33.019531 26.582031 32.5 26.433594 31.972656 26.3125 C 31.445312 26.1875 30.914062 26.089844 30.378906 26.019531 C 29.839844 25.949219 29.300781 25.90625 28.761719 25.890625 C 28.21875 25.875 27.679688 25.882812 27.140625 25.921875 C 26.601562 25.957031 26.0625 26.023438 25.527344 26.113281 C 24.996094 26.203125 24.46875 26.320312 23.945312 26.464844 C 23.421875 26.609375 22.910156 26.777344 22.40625 26.972656 C 21.898438 27.167969 21.40625 27.386719 20.921875 27.628906 C 20.4375 27.875 19.96875 28.140625 19.511719 28.433594 C 19.054688 28.722656 18.613281 29.035156 18.1875 29.371094 C 17.765625 29.707031 17.355469 30.0625 16.964844 30.4375 C 16.578125 30.8125 16.207031 31.207031 15.855469 31.617188 C 15.503906 32.03125 15.175781 32.460938 14.867188 32.90625 C 14.558594 33.351562 14.273438 33.808594 14.011719 34.28125 C 13.75 34.757812 13.511719 35.242188 13.296875 35.738281 C 13.085938 36.238281 12.894531 36.742188 12.730469 37.261719 C 12.570312 37.777344 12.433594 38.300781 12.320312 38.828125 C 12.210938 39.359375 12.125 39.894531 12.066406 40.429688 C 12.007812 40.96875 11.976562 41.507812 11.972656 42.050781 L 8.789062 145.527344 C 7.980469 147.359375 7.226562 149.210938 6.519531 151.085938 C 5.816406 152.960938 5.164062 154.851562 4.5625 156.761719 C 3.964844 158.671875 3.417969 160.597656 2.925781 162.539062 C 2.433594 164.480469 1.996094 166.433594 1.609375 168.398438 C 1.226562 170.363281 0.898438 172.339844 0.625 174.320312 C 0.347656 176.304688 0.128906 178.296875 -0.0351562 180.292969 C -0.199219 182.285156 -0.304688 184.285156 -0.359375 186.285156 C -0.410156 188.289062 -0.40625 190.289062 -0.347656 192.292969 C -0.289062 194.292969 -0.175781 196.292969 -0.00390625 198.285156 C 0.164062 200.28125 0.390625 202.269531 0.667969 204.253906 C 0.949219 206.234375 1.285156 208.210938 1.675781 210.171875 C 2.066406 212.136719 2.507812 214.089844 3.007812 216.027344 C 3.507812 217.96875 4.058594 219.890625 4.664062 221.800781 C 5.269531 223.710938 5.925781 225.597656 6.636719 227.472656 C 7.347656 229.34375 8.109375 231.195312 8.925781 233.023438 C 9.738281 234.855469 10.601562 236.660156 11.515625 238.441406 C 12.429688 240.222656 13.390625 241.976562 14.402344 243.707031 C 15.414062 245.433594 16.472656 247.132812 17.578125 248.800781 C 18.683594 250.472656 19.835938 252.109375 21.03125 253.714844 C 22.230469 255.320312 23.46875 256.890625 24.753906 258.425781 C 26.039062 259.960938 27.363281 261.460938 28.730469 262.925781 C 30.097656 264.386719 31.507812 265.808594 32.953125 267.195312 C 34.398438 268.578125 35.882812 269.921875 37.402344 271.222656 C 38.925781 272.527344 40.480469 273.785156 42.074219 275 C 43.664062 276.214844 45.289062 277.386719 46.945312 278.511719 C 48.601562 279.636719 50.285156 280.714844 52.003906 281.746094 C 53.71875 282.777344 55.460938 283.757812 57.234375 284.691406 C 59.003906 285.628906 60.800781 286.511719 62.621094 287.347656 C 64.441406 288.179688 66.28125 288.964844 68.144531 289.695312 C 70.007812 290.429688 71.890625 291.109375 73.792969 291.734375 C 75.695312 292.363281 77.609375 292.9375 79.542969 293.457031 C 81.476562 293.980469 83.421875 294.445312 85.382812 294.859375 C 87.34375 295.273438 89.3125 295.628906 91.289062 295.933594 C 93.269531 296.238281 95.253906 296.484375 97.246094 296.679688 C 99.238281 296.871094 101.234375 297.007812 103.234375 297.089844 C 105.234375 297.171875 107.238281 297.199219 109.238281 297.167969 C 111.242188 297.140625 113.238281 297.054688 115.238281 296.914062 C 117.234375 296.773438 119.226562 296.578125 121.210938 296.328125 C 123.199219 296.074219 125.175781 295.769531 127.144531 295.40625 C 129.113281 295.046875 131.070312 294.632812 133.015625 294.160156 C 134.964844 293.691406 136.894531 293.167969 138.8125 292.589844 C 140.730469 292.011719 142.628906 291.382812 144.511719 290.699219 C 146.390625 290.015625 148.253906 289.28125 150.09375 288.492188 C 151.933594 287.707031 153.753906 286.871094 155.546875 285.980469 C 157.34375 285.09375 159.109375 284.15625 160.851562 283.171875 C 162.597656 282.183594 164.308594 281.152344 165.996094 280.070312 C 167.679688 278.988281 169.332031 277.859375 170.957031 276.6875 C 172.578125 275.515625 174.167969 274.296875 175.722656 273.035156 C 177.277344 271.773438 178.792969 270.46875 180.277344 269.125 C 181.757812 267.777344 183.203125 266.390625 184.609375 264.964844 C 186.011719 263.539062 187.378906 262.074219 188.703125 260.570312 C 190.023438 259.070312 191.304688 257.53125 192.542969 255.957031 C 193.78125 254.382812 194.976562 252.777344 196.125 251.136719 C 197.273438 249.496094 198.378906 247.828125 199.433594 246.125 C 200.488281 244.425781 201.5 242.695312 202.457031 240.9375 C 203.417969 239.179688 204.328125 237.398438 205.191406 235.589844 C 206.050781 233.78125 206.863281 231.953125 207.621094 230.097656 C 208.378906 228.246094 209.085938 226.375 209.742188 224.480469 C 210.398438 222.589844 211 220.679688 211.550781 218.753906 C 212.097656 216.828125 212.59375 214.886719 213.035156 212.933594 C 213.476562 210.980469 213.863281 209.015625 214.195312 207.042969 C 214.527344 205.066406 214.804688 203.085938 215.027344 201.09375 C 215.25 199.105469 215.417969 197.109375 215.527344 195.109375 C 215.636719 193.109375 215.695312 191.109375 215.695312 189.105469 C 215.695312 187.050781 215.644531 185.007812 215.527344 182.976562 Z M 215.527344 182.976562 " fill-opacity="1" fill-rule="nonzero"/></g><path fill="#1b2730" d="M 107.636719 123.597656 C 102.867188 123.605469 98.15625 124.132812 93.5 125.171875 L 102.023438 139.09375 L 85.195312 226.855469 L 107.648438 247.210938 L 130.105469 226.855469 L 113.273438 139.09375 L 121.796875 125.171875 C 117.136719 124.128906 112.414062 123.605469 107.636719 123.597656 Z M 107.636719 123.597656 " fill-opacity="1" fill-rule="nonzero"/><g fill="#1b2730" fill-opacity="1"><g transform="translate(0.946541, 374.135044)"><g><path d="M 33.203125 0.921875 C 29.785156 0.921875 26.40625 0.492188 23.0625 -0.359375 C 19.726562 -1.210938 16.664062 -2.507812 13.875 -4.25 C 11.082031 -5.988281 8.785156 -8.175781 6.984375 -10.8125 C 5.191406 -13.445312 4.160156 -16.550781 3.890625 -20.125 L 22 -20.125 C 22.332031 -18.5625 22.984375 -17.234375 23.953125 -16.140625 C 24.929688 -15.046875 26.195312 -14.203125 27.75 -13.609375 C 29.3125 -13.015625 31.097656 -12.71875 33.109375 -12.71875 C 34.929688 -12.71875 36.660156 -12.898438 38.296875 -13.265625 C 39.929688 -13.628906 41.257812 -14.242188 42.28125 -15.109375 C 43.300781 -15.984375 43.8125 -17.195312 43.8125 -18.75 C 43.8125 -20.09375 43.285156 -21.128906 42.234375 -21.859375 C 41.179688 -22.585938 39.820312 -23.148438 38.15625 -23.546875 C 36.5 -23.941406 34.753906 -24.289062 32.921875 -24.59375 L 22.8125 -26.34375 C 17.757812 -27.164062 13.679688 -29.210938 10.578125 -32.484375 C 7.484375 -35.765625 5.878906 -40.207031 5.765625 -45.8125 C 5.703125 -50.269531 6.894531 -54.070312 9.34375 -57.21875 C 11.800781 -60.375 15.09375 -62.78125 19.21875 -64.4375 C 23.351562 -66.101562 27.921875 -66.9375 32.921875 -66.9375 C 38.960938 -66.9375 44.066406 -66.050781 48.234375 -64.28125 C 52.410156 -62.519531 55.585938 -60.066406 57.765625 -56.921875 C 59.953125 -53.785156 61.09375 -50.175781 61.1875 -46.09375 L 43.53125 -46.09375 C 43.34375 -47.800781 42.820312 -49.179688 41.96875 -50.234375 C 41.125 -51.285156 39.976562 -52.046875 38.53125 -52.515625 C 37.082031 -52.984375 35.332031 -53.21875 33.28125 -53.21875 C 31.582031 -53.21875 30.160156 -53.054688 29.015625 -52.734375 C 27.867188 -52.421875 26.957031 -52.007812 26.28125 -51.5 C 25.613281 -51 25.132812 -50.441406 24.84375 -49.828125 C 24.5625 -49.222656 24.421875 -48.617188 24.421875 -48.015625 C 24.421875 -46.515625 24.890625 -45.304688 25.828125 -44.390625 C 26.773438 -43.484375 28.664062 -42.769531 31.5 -42.25 L 41.65625 -40.515625 C 46.382812 -39.691406 50.085938 -38.414062 52.765625 -36.6875 C 55.453125 -34.96875 57.425781 -33.023438 58.6875 -30.859375 C 59.957031 -28.703125 60.757812 -26.554688 61.09375 -24.421875 C 61.425781 -22.285156 61.59375 -20.394531 61.59375 -18.75 C 61.59375 -15 60.347656 -11.632812 57.859375 -8.65625 C 55.378906 -5.6875 52.003906 -3.347656 47.734375 -1.640625 C 43.472656 0.0664062 38.628906 0.921875 33.203125 0.921875 Z M 33.203125 0.921875 "/></g></g></g><g fill="#1b2730" fill-opacity="1"><g transform="translate(66.052891, 374.135044)"><g><path d="M 6.171875 0 L 6.171875 -66.125 L 55.015625 -66.125 L 54.921875 -51.390625 L 24.09375 -51.390625 L 24.09375 -40.421875 L 49.890625 -40.421875 L 49.890625 -26.0625 L 23.953125 -26.0625 L 23.953125 -14.8125 L 55.09375 -14.8125 L 55.09375 0 Z M 6.171875 0 "/></g></g></g><g fill="#1b2730" fill-opacity="1"><g transform="translate(125.261265, 374.135044)"><g><path d="M 88.4375 -66.125 L 68.6875 0 L 55.421875 0 L 44.90625 -35.9375 L 34.390625 0 L 21.3125 0 L 1.375 -66.125 L 18.5625 -66.125 L 28.8125 -30.640625 L 38.6875 -66.125 L 51.125 -66.125 L 61.359375 -30.640625 L 71.234375 -66.125 Z M 88.4375 -66.125 "/></g></g></g></svg>