<svg xmlns="http://www.w3.org/2000/svg" xmlns:xlink="http://www.w3.org/1999/xlink" width="450" zoomAndPan="magnify" viewBox="0 0 337.5 281.25" height="375" preserveAspectRatio="xMidYMid meet" version="1.0"><defs><g/><clipPath id="6227c0695d"><path d="M 8.117188 18.617188 L 247.65625 18.617188 L 247.65625 257.65625 L 8.117188 257.65625 Z M 8.117188 18.617188 " clip-rule="nonzero"/></clipPath></defs><path fill="#1b2730" d="M 146.828125 140.976562 C 136.890625 158.761719 117.894531 170.777344 96.085938 170.777344 C 74.28125 170.777344 55.28125 158.761719 45.347656 140.976562 C 47.296875 137.160156 49.976562 133.625 53.25 130.464844 C 54.605469 129.140625 56.066406 127.894531 57.617188 126.726562 C 65.214844 120.96875 75.050781 116.910156 86.054688 115.351562 C 88.03125 115.070312 90.042969 114.867188 92.082031 114.757812 C 92.613281 114.730469 93.136719 114.710938 93.671875 114.691406 L 93.632812 114.894531 L 93.3125 116.554688 L 85.121094 152.96875 L 96.085938 165.121094 L 107.046875 152.96875 L 98.855469 116.554688 L 98.535156 114.894531 L 98.492188 114.691406 C 99.03125 114.710938 99.554688 114.730469 100.085938 114.757812 C 102.121094 114.867188 104.136719 115.070312 106.109375 115.351562 C 117.117188 116.910156 126.949219 120.96875 134.550781 126.726562 C 139.859375 130.734375 144.078125 135.582031 146.828125 140.976562 " fill-opacity="1" fill-rule="nonzero"/><path fill="#1b2730" d="M 88.011719 109.046875 C 89.429688 109.492188 90.898438 109.824219 92.40625 110.023438 C 93.226562 110.136719 94.058594 110.210938 94.898438 110.25 C 95.285156 110.273438 95.679688 110.273438 96.082031 110.273438 C 96.484375 110.273438 96.878906 110.273438 97.265625 110.25 C 98.105469 110.210938 98.941406 110.136719 99.757812 110.023438 C 101.265625 109.824219 102.738281 109.492188 104.152344 109.046875 C 115.1875 105.609375 123.195312 95.3125 123.195312 83.140625 C 123.195312 68.15625 111.058594 56.007812 96.082031 56.007812 C 81.105469 56.007812 68.972656 68.15625 68.972656 83.140625 C 68.972656 95.3125 76.976562 105.609375 88.011719 109.046875 " fill-opacity="1" fill-rule="nonzero"/><g clip-path="url(#6227c0695d)"><path fill="#1b2730" d="M 96.085938 37.253906 C 134.121094 37.253906 164.945312 68.113281 164.945312 106.179688 C 164.945312 118.382812 161.78125 129.84375 156.21875 139.785156 C 144.445312 160.863281 121.925781 175.105469 96.085938 175.105469 C 70.246094 175.105469 47.730469 160.863281 35.953125 139.785156 C 30.390625 129.84375 27.226562 118.382812 27.226562 106.179688 C 27.226562 68.113281 58.054688 37.253906 96.085938 37.253906 Z M 244.996094 242.992188 L 164.230469 162.140625 L 167.410156 157.730469 C 168.234375 156.585938 169.03125 155.417969 169.792969 154.230469 L 169.792969 154.222656 C 180.222656 138.15625 185.128906 118.933594 183.667969 99.628906 C 182.085938 78.675781 173.050781 58.96875 158.226562 44.128906 C 141.652344 27.542969 119.585938 18.40625 96.085938 18.40625 C 72.582031 18.40625 50.511719 27.542969 33.941406 44.128906 C 4.238281 73.859375 0.28125 119.75 22.085938 153.78125 C 25.417969 159.015625 29.375 163.960938 33.941406 168.53125 C 36.402344 170.996094 38.992188 173.289062 41.679688 175.417969 C 42.117188 175.761719 42.554688 176.105469 42.996094 176.441406 C 52.550781 183.714844 63.402344 188.890625 74.984375 191.722656 C 81.804688 193.398438 88.875 194.25 96.085938 194.25 C 103.273438 194.25 110.339844 193.398438 117.164062 191.722656 C 128.003906 189.074219 138.242188 184.355469 147.433594 177.722656 L 149.210938 176.441406 L 150.488281 175.523438 L 151.847656 174.539062 L 232.617188 255.382812 C 234.273438 257.039062 236.472656 257.953125 238.804688 257.953125 C 241.148438 257.953125 243.34375 257.039062 244.996094 255.382812 C 246.652344 253.726562 247.558594 251.527344 247.558594 249.183594 C 247.558594 246.847656 246.652344 244.648438 244.996094 242.992188 " fill-opacity="1" fill-rule="nonzero"/></g><g fill="#1b2730" fill-opacity="1"><g transform="translate(268.585606, 75.284452)"><g><path d="M 31.875 -12.359375 C 31.875 -9.722656 31.234375 -7.429688 29.953125 -5.484375 C 28.679688 -3.535156 26.820312 -2.03125 24.375 -0.96875 C 21.925781 0.0820312 18.957031 0.609375 15.46875 0.609375 C 13.925781 0.609375 12.414062 0.503906 10.9375 0.296875 C 9.46875 0.0976562 8.054688 -0.195312 6.703125 -0.59375 C 5.359375 -0.988281 4.078125 -1.484375 2.859375 -2.078125 L 2.859375 -10.84375 C 4.972656 -9.90625 7.164062 -9.0625 9.4375 -8.3125 C 11.707031 -7.5625 13.960938 -7.1875 16.203125 -7.1875 C 17.742188 -7.1875 18.984375 -7.390625 19.921875 -7.796875 C 20.867188 -8.203125 21.554688 -8.757812 21.984375 -9.46875 C 22.410156 -10.175781 22.625 -10.988281 22.625 -11.90625 C 22.625 -13.019531 22.25 -13.972656 21.5 -14.765625 C 20.75 -15.554688 19.71875 -16.296875 18.40625 -16.984375 C 17.09375 -17.679688 15.613281 -18.425781 13.96875 -19.21875 C 12.9375 -19.695312 11.8125 -20.285156 10.59375 -20.984375 C 9.375 -21.691406 8.21875 -22.550781 7.125 -23.5625 C 6.03125 -24.582031 5.128906 -25.816406 4.421875 -27.265625 C 3.722656 -28.710938 3.375 -30.453125 3.375 -32.484375 C 3.375 -35.148438 3.984375 -37.425781 5.203125 -39.3125 C 6.421875 -41.195312 8.160156 -42.640625 10.421875 -43.640625 C 12.691406 -44.648438 15.367188 -45.15625 18.453125 -45.15625 C 20.765625 -45.15625 22.96875 -44.882812 25.0625 -44.34375 C 27.164062 -43.8125 29.367188 -43.035156 31.671875 -42.015625 L 28.625 -34.6875 C 26.570312 -35.519531 24.734375 -36.160156 23.109375 -36.609375 C 21.484375 -37.066406 19.828125 -37.296875 18.140625 -37.296875 C 16.960938 -37.296875 15.957031 -37.109375 15.125 -36.734375 C 14.300781 -36.359375 13.675781 -35.832031 13.25 -35.15625 C 12.820312 -34.476562 12.609375 -33.691406 12.609375 -32.796875 C 12.609375 -31.734375 12.914062 -30.84375 13.53125 -30.125 C 14.15625 -29.40625 15.085938 -28.707031 16.328125 -28.03125 C 17.578125 -27.363281 19.140625 -26.585938 21.015625 -25.703125 C 23.285156 -24.617188 25.226562 -23.492188 26.84375 -22.328125 C 28.457031 -21.160156 29.695312 -19.789062 30.5625 -18.21875 C 31.4375 -16.644531 31.875 -14.691406 31.875 -12.359375 Z M 31.875 -12.359375 "/></g></g></g><g fill="#1b2730" fill-opacity="1"><g transform="translate(268.585606, 162.02163)"><g><path d="M 31.234375 0 L 5.609375 0 L 5.609375 -44.515625 L 31.234375 -44.515625 L 31.234375 -36.78125 L 15.046875 -36.78125 L 15.046875 -27.015625 L 30.109375 -27.015625 L 30.109375 -19.28125 L 15.046875 -19.28125 L 15.046875 -7.796875 L 31.234375 -7.796875 Z M 31.234375 0 "/></g></g></g><g fill="#1b2730" fill-opacity="1"><g transform="translate(268.585606, 248.758808)"><g><path d="M 60.28125 -44.515625 L 48.96875 0 L 38.21875 0 L 32.1875 -23.390625 C 32.0625 -23.828125 31.894531 -24.503906 31.6875 -25.421875 C 31.488281 -26.335938 31.273438 -27.335938 31.046875 -28.421875 C 30.828125 -29.503906 30.628906 -30.53125 30.453125 -31.5 C 30.285156 -32.46875 30.171875 -33.234375 30.109375 -33.796875 C 30.046875 -33.234375 29.925781 -32.472656 29.75 -31.515625 C 29.582031 -30.554688 29.390625 -29.539062 29.171875 -28.46875 C 28.960938 -27.394531 28.753906 -26.390625 28.546875 -25.453125 C 28.347656 -24.515625 28.191406 -23.804688 28.078125 -23.328125 L 22.078125 0 L 11.359375 0 L 0 -44.515625 L 9.28125 -44.515625 L 14.984375 -20.21875 C 15.140625 -19.488281 15.320312 -18.613281 15.53125 -17.59375 C 15.75 -16.582031 15.960938 -15.523438 16.171875 -14.421875 C 16.390625 -13.316406 16.582031 -12.25 16.75 -11.21875 C 16.925781 -10.195312 17.054688 -9.3125 17.140625 -8.5625 C 17.242188 -9.332031 17.375 -10.226562 17.53125 -11.25 C 17.695312 -12.269531 17.875 -13.3125 18.0625 -14.375 C 18.257812 -15.445312 18.457031 -16.4375 18.65625 -17.34375 C 18.863281 -18.257812 19.050781 -19.003906 19.21875 -19.578125 L 25.703125 -44.515625 L 34.625 -44.515625 L 41.109375 -19.578125 C 41.242188 -19.023438 41.40625 -18.285156 41.59375 -17.359375 C 41.789062 -16.441406 41.988281 -15.445312 42.1875 -14.375 C 42.394531 -13.300781 42.585938 -12.25 42.765625 -11.21875 C 42.941406 -10.195312 43.066406 -9.3125 43.140625 -8.5625 C 43.285156 -9.570312 43.484375 -10.800781 43.734375 -12.25 C 43.992188 -13.707031 44.269531 -15.15625 44.5625 -16.59375 C 44.851562 -18.03125 45.113281 -19.238281 45.34375 -20.21875 L 51 -44.515625 Z M 60.28125 -44.515625 "/></g></g></g></svg>